<mxfile host="app.diagrams.net" modified="2023-10-20T18:26:45.526Z" agent="Mozilla/5.0 (Windows NT 10.0; Win64; x64; rv:109.0) Gecko/20100101 Firefox/118.0" etag="kae4MsTg-dk0xIuJlwgp" version="22.0.5" type="device">
  <diagram name="1 oldal" id="RMf6y5_obdOdZjIeBnyi">
    <mxGraphModel dx="4052" dy="2387" grid="1" gridSize="10" guides="1" tooltips="1" connect="1" arrows="1" fold="1" page="1" pageScale="1" pageWidth="827" pageHeight="1169" math="0" shadow="0">
      <root>
        <mxCell id="0" />
        <mxCell id="1" parent="0" />
        <mxCell id="RZV11Bh1NO4c7f-Brt2T-11" style="edgeStyle=orthogonalEdgeStyle;rounded=0;orthogonalLoop=1;jettySize=auto;html=1;exitX=1;exitY=0.75;exitDx=0;exitDy=0;entryX=0.5;entryY=0;entryDx=0;entryDy=0;" parent="1" source="un-u-f8fUQM7BjyOaJRZ-424" target="KMo8AS0ZJu5sJgMPSJ-H-9" edge="1">
          <mxGeometry relative="1" as="geometry">
            <mxPoint x="460" y="-10" as="sourcePoint" />
            <mxPoint x="947" y="75.62" as="targetPoint" />
            <Array as="points">
              <mxPoint x="450" y="30" />
              <mxPoint x="940" y="30" />
            </Array>
          </mxGeometry>
        </mxCell>
        <mxCell id="un-u-f8fUQM7BjyOaJRZ-424" value="BÖRTÖN" style="rounded=1;whiteSpace=wrap;html=1;" parent="1" vertex="1">
          <mxGeometry x="330" width="120" height="60" as="geometry" />
        </mxCell>
        <mxCell id="un-u-f8fUQM7BjyOaJRZ-427" value="" style="endArrow=none;html=1;rounded=0;" parent="1" edge="1">
          <mxGeometry width="50" height="50" relative="1" as="geometry">
            <mxPoint x="280" y="110" as="sourcePoint" />
            <mxPoint x="330" y="60" as="targetPoint" />
          </mxGeometry>
        </mxCell>
        <mxCell id="ne0dGpzM1XJQtN-Q94vP-27" style="edgeStyle=orthogonalEdgeStyle;rounded=0;orthogonalLoop=1;jettySize=auto;html=1;exitX=0;exitY=0.5;exitDx=0;exitDy=0;entryX=0.5;entryY=0;entryDx=0;entryDy=0;" parent="1" source="un-u-f8fUQM7BjyOaJRZ-428" target="5e80ykowDUrw1KKTI-oJ-1" edge="1">
          <mxGeometry relative="1" as="geometry" />
        </mxCell>
        <mxCell id="un-u-f8fUQM7BjyOaJRZ-428" value="Egy kulcs" style="ellipse;whiteSpace=wrap;html=1;" parent="1" vertex="1">
          <mxGeometry x="250" y="110" width="50" height="40" as="geometry" />
        </mxCell>
        <mxCell id="un-u-f8fUQM7BjyOaJRZ-429" value="" style="endArrow=none;html=1;rounded=0;entryX=0.565;entryY=0.987;entryDx=0;entryDy=0;entryPerimeter=0;" parent="1" target="un-u-f8fUQM7BjyOaJRZ-424" edge="1">
          <mxGeometry width="50" height="50" relative="1" as="geometry">
            <mxPoint x="400" y="130" as="sourcePoint" />
            <mxPoint x="400" y="100" as="targetPoint" />
          </mxGeometry>
        </mxCell>
        <mxCell id="ne0dGpzM1XJQtN-Q94vP-72" style="edgeStyle=orthogonalEdgeStyle;rounded=0;orthogonalLoop=1;jettySize=auto;html=1;exitX=0.5;exitY=1;exitDx=0;exitDy=0;entryX=0.5;entryY=0;entryDx=0;entryDy=0;" parent="1" source="un-u-f8fUQM7BjyOaJRZ-431" target="ne0dGpzM1XJQtN-Q94vP-51" edge="1">
          <mxGeometry relative="1" as="geometry" />
        </mxCell>
        <mxCell id="ne0dGpzM1XJQtN-Q94vP-73" style="edgeStyle=orthogonalEdgeStyle;rounded=0;orthogonalLoop=1;jettySize=auto;html=1;exitX=1;exitY=0.5;exitDx=0;exitDy=0;" parent="1" source="un-u-f8fUQM7BjyOaJRZ-431" target="ne0dGpzM1XJQtN-Q94vP-50" edge="1">
          <mxGeometry relative="1" as="geometry">
            <Array as="points">
              <mxPoint x="424" y="190" />
              <mxPoint x="545" y="190" />
            </Array>
          </mxGeometry>
        </mxCell>
        <mxCell id="un-u-f8fUQM7BjyOaJRZ-431" value="kerítés&lt;br&gt;átvágás" style="ellipse;whiteSpace=wrap;html=1;aspect=fixed;" parent="1" vertex="1">
          <mxGeometry x="374" y="120" width="50" height="50" as="geometry" />
        </mxCell>
        <mxCell id="un-u-f8fUQM7BjyOaJRZ-457" value="" style="edgeStyle=orthogonalEdgeStyle;rounded=0;orthogonalLoop=1;jettySize=auto;html=1;" parent="1" edge="1">
          <mxGeometry relative="1" as="geometry">
            <mxPoint x="790" y="749.9999999999998" as="sourcePoint" />
          </mxGeometry>
        </mxCell>
        <mxCell id="ne0dGpzM1XJQtN-Q94vP-7" style="edgeStyle=orthogonalEdgeStyle;rounded=0;orthogonalLoop=1;jettySize=auto;html=1;exitX=0.5;exitY=1;exitDx=0;exitDy=0;" parent="1" source="5e80ykowDUrw1KKTI-oJ-1" target="5e80ykowDUrw1KKTI-oJ-9" edge="1">
          <mxGeometry relative="1" as="geometry" />
        </mxCell>
        <mxCell id="ne0dGpzM1XJQtN-Q94vP-8" style="edgeStyle=orthogonalEdgeStyle;rounded=0;orthogonalLoop=1;jettySize=auto;html=1;exitX=0.5;exitY=1;exitDx=0;exitDy=0;entryX=0.5;entryY=0;entryDx=0;entryDy=0;" parent="1" source="5e80ykowDUrw1KKTI-oJ-1" target="5e80ykowDUrw1KKTI-oJ-7" edge="1">
          <mxGeometry relative="1" as="geometry" />
        </mxCell>
        <mxCell id="5e80ykowDUrw1KKTI-oJ-1" value="2 kulcs kell&lt;br&gt;munka 16:00-18:00" style="rounded=0;whiteSpace=wrap;html=1;" parent="1" vertex="1">
          <mxGeometry x="40" y="170" width="90" height="50" as="geometry" />
        </mxCell>
        <mxCell id="5e80ykowDUrw1KKTI-oJ-14" style="edgeStyle=orthogonalEdgeStyle;rounded=0;orthogonalLoop=1;jettySize=auto;html=1;exitX=0.5;exitY=1;exitDx=0;exitDy=0;entryX=0.5;entryY=0;entryDx=0;entryDy=0;" parent="1" source="5e80ykowDUrw1KKTI-oJ-7" target="5e80ykowDUrw1KKTI-oJ-12" edge="1">
          <mxGeometry relative="1" as="geometry" />
        </mxCell>
        <mxCell id="ne0dGpzM1XJQtN-Q94vP-6" style="edgeStyle=orthogonalEdgeStyle;rounded=0;orthogonalLoop=1;jettySize=auto;html=1;exitX=0;exitY=0.5;exitDx=0;exitDy=0;entryX=0.5;entryY=0;entryDx=0;entryDy=0;" parent="1" source="5e80ykowDUrw1KKTI-oJ-7" target="5e80ykowDUrw1KKTI-oJ-11" edge="1">
          <mxGeometry relative="1" as="geometry" />
        </mxCell>
        <mxCell id="5e80ykowDUrw1KKTI-oJ-7" value="elszökni a tömegből" style="rounded=0;whiteSpace=wrap;html=1;" parent="1" vertex="1">
          <mxGeometry y="250" width="70" height="40" as="geometry" />
        </mxCell>
        <mxCell id="ne0dGpzM1XJQtN-Q94vP-61" style="edgeStyle=orthogonalEdgeStyle;rounded=0;orthogonalLoop=1;jettySize=auto;html=1;exitX=1;exitY=0.5;exitDx=0;exitDy=0;entryX=1;entryY=0.5;entryDx=0;entryDy=0;" parent="1" source="5e80ykowDUrw1KKTI-oJ-9" target="5e80ykowDUrw1KKTI-oJ-15" edge="1">
          <mxGeometry relative="1" as="geometry">
            <Array as="points">
              <mxPoint x="360" y="270" />
              <mxPoint x="360" y="630" />
              <mxPoint x="10" y="630" />
              <mxPoint x="10" y="605" />
            </Array>
          </mxGeometry>
        </mxCell>
        <mxCell id="5e80ykowDUrw1KKTI-oJ-9" value="maradni dolgozni" style="rounded=0;whiteSpace=wrap;html=1;" parent="1" vertex="1">
          <mxGeometry x="95" y="250" width="80" height="40" as="geometry" />
        </mxCell>
        <mxCell id="5e80ykowDUrw1KKTI-oJ-17" style="edgeStyle=orthogonalEdgeStyle;rounded=0;orthogonalLoop=1;jettySize=auto;html=1;exitX=0.5;exitY=1;exitDx=0;exitDy=0;" parent="1" source="5e80ykowDUrw1KKTI-oJ-11" target="5e80ykowDUrw1KKTI-oJ-15" edge="1">
          <mxGeometry relative="1" as="geometry" />
        </mxCell>
        <mxCell id="5e80ykowDUrw1KKTI-oJ-11" value="30 perc után visszatérni&lt;br&gt;igen" style="rounded=0;whiteSpace=wrap;html=1;" parent="1" vertex="1">
          <mxGeometry x="-80" y="320" width="70" height="40" as="geometry" />
        </mxCell>
        <mxCell id="5e80ykowDUrw1KKTI-oJ-19" style="edgeStyle=orthogonalEdgeStyle;rounded=0;orthogonalLoop=1;jettySize=auto;html=1;exitX=0.5;exitY=1;exitDx=0;exitDy=0;entryX=0.25;entryY=0;entryDx=0;entryDy=0;" parent="1" source="5e80ykowDUrw1KKTI-oJ-12" target="5e80ykowDUrw1KKTI-oJ-18" edge="1">
          <mxGeometry relative="1" as="geometry" />
        </mxCell>
        <mxCell id="5e80ykowDUrw1KKTI-oJ-12" value="30 perc után visszatérni&lt;br&gt;nem" style="rounded=0;whiteSpace=wrap;html=1;" parent="1" vertex="1">
          <mxGeometry x="10" y="320" width="70" height="40" as="geometry" />
        </mxCell>
        <mxCell id="5e80ykowDUrw1KKTI-oJ-15" value="nem fognak gyanút" style="rounded=0;whiteSpace=wrap;html=1;" parent="1" vertex="1">
          <mxGeometry x="-80" y="585" width="70" height="40" as="geometry" />
        </mxCell>
        <mxCell id="5e80ykowDUrw1KKTI-oJ-21" style="edgeStyle=orthogonalEdgeStyle;rounded=0;orthogonalLoop=1;jettySize=auto;html=1;exitX=0.5;exitY=1;exitDx=0;exitDy=0;entryX=0.5;entryY=0;entryDx=0;entryDy=0;" parent="1" source="5e80ykowDUrw1KKTI-oJ-18" target="5e80ykowDUrw1KKTI-oJ-20" edge="1">
          <mxGeometry relative="1" as="geometry" />
        </mxCell>
        <mxCell id="5e80ykowDUrw1KKTI-oJ-23" style="edgeStyle=orthogonalEdgeStyle;rounded=0;orthogonalLoop=1;jettySize=auto;html=1;exitX=0.5;exitY=1;exitDx=0;exitDy=0;entryX=0.5;entryY=0;entryDx=0;entryDy=0;" parent="1" source="5e80ykowDUrw1KKTI-oJ-18" target="5e80ykowDUrw1KKTI-oJ-22" edge="1">
          <mxGeometry relative="1" as="geometry" />
        </mxCell>
        <mxCell id="ne0dGpzM1XJQtN-Q94vP-2" style="edgeStyle=orthogonalEdgeStyle;rounded=0;orthogonalLoop=1;jettySize=auto;html=1;exitX=1;exitY=0.5;exitDx=0;exitDy=0;" parent="1" source="5e80ykowDUrw1KKTI-oJ-18" target="ne0dGpzM1XJQtN-Q94vP-1" edge="1">
          <mxGeometry relative="1" as="geometry" />
        </mxCell>
        <mxCell id="5e80ykowDUrw1KKTI-oJ-18" value="gyanút foganak&lt;br&gt;hazudni" style="rounded=0;whiteSpace=wrap;html=1;" parent="1" vertex="1">
          <mxGeometry x="20" y="390" width="70" height="40" as="geometry" />
        </mxCell>
        <mxCell id="ne0dGpzM1XJQtN-Q94vP-9" style="edgeStyle=orthogonalEdgeStyle;rounded=0;orthogonalLoop=1;jettySize=auto;html=1;exitX=0.5;exitY=1;exitDx=0;exitDy=0;entryX=0.5;entryY=0;entryDx=0;entryDy=0;" parent="1" source="5e80ykowDUrw1KKTI-oJ-20" target="5e80ykowDUrw1KKTI-oJ-15" edge="1">
          <mxGeometry relative="1" as="geometry" />
        </mxCell>
        <mxCell id="5e80ykowDUrw1KKTI-oJ-20" value="eltévedt" style="rounded=0;whiteSpace=wrap;html=1;" parent="1" vertex="1">
          <mxGeometry y="470" width="70" height="40" as="geometry" />
        </mxCell>
        <mxCell id="ne0dGpzM1XJQtN-Q94vP-10" style="edgeStyle=orthogonalEdgeStyle;rounded=0;orthogonalLoop=1;jettySize=auto;html=1;exitX=0.5;exitY=1;exitDx=0;exitDy=0;entryX=0.5;entryY=0;entryDx=0;entryDy=0;" parent="1" source="5e80ykowDUrw1KKTI-oJ-22" target="5e80ykowDUrw1KKTI-oJ-15" edge="1">
          <mxGeometry relative="1" as="geometry" />
        </mxCell>
        <mxCell id="5e80ykowDUrw1KKTI-oJ-22" value="WC-n volt" style="rounded=0;whiteSpace=wrap;html=1;" parent="1" vertex="1">
          <mxGeometry x="100" y="470" width="70" height="40" as="geometry" />
        </mxCell>
        <mxCell id="ne0dGpzM1XJQtN-Q94vP-4" style="edgeStyle=orthogonalEdgeStyle;rounded=0;orthogonalLoop=1;jettySize=auto;html=1;exitX=0.5;exitY=1;exitDx=0;exitDy=0;entryX=0.5;entryY=0;entryDx=0;entryDy=0;" parent="1" source="ne0dGpzM1XJQtN-Q94vP-1" target="ne0dGpzM1XJQtN-Q94vP-3" edge="1">
          <mxGeometry relative="1" as="geometry" />
        </mxCell>
        <mxCell id="ne0dGpzM1XJQtN-Q94vP-1" value="Igazat mond" style="rounded=0;whiteSpace=wrap;html=1;" parent="1" vertex="1">
          <mxGeometry x="200" y="470" width="70" height="40" as="geometry" />
        </mxCell>
        <mxCell id="ne0dGpzM1XJQtN-Q94vP-3" value="VÉGE" style="rounded=0;whiteSpace=wrap;html=1;" parent="1" vertex="1">
          <mxGeometry x="200" y="565" width="70" height="40" as="geometry" />
        </mxCell>
        <mxCell id="ne0dGpzM1XJQtN-Q94vP-15" style="edgeStyle=orthogonalEdgeStyle;rounded=0;orthogonalLoop=1;jettySize=auto;html=1;exitX=0.5;exitY=1;exitDx=0;exitDy=0;entryX=0.5;entryY=0;entryDx=0;entryDy=0;" parent="1" source="ne0dGpzM1XJQtN-Q94vP-11" target="ne0dGpzM1XJQtN-Q94vP-13" edge="1">
          <mxGeometry relative="1" as="geometry" />
        </mxCell>
        <mxCell id="ne0dGpzM1XJQtN-Q94vP-17" style="edgeStyle=orthogonalEdgeStyle;rounded=0;orthogonalLoop=1;jettySize=auto;html=1;exitX=0;exitY=0.5;exitDx=0;exitDy=0;entryX=0.5;entryY=0;entryDx=0;entryDy=0;" parent="1" source="ne0dGpzM1XJQtN-Q94vP-11" target="ne0dGpzM1XJQtN-Q94vP-14" edge="1">
          <mxGeometry relative="1" as="geometry" />
        </mxCell>
        <mxCell id="ne0dGpzM1XJQtN-Q94vP-11" value="Másnap" style="rounded=0;whiteSpace=wrap;html=1;" parent="1" vertex="1">
          <mxGeometry x="-80" y="625" width="70" height="40" as="geometry" />
        </mxCell>
        <mxCell id="ne0dGpzM1XJQtN-Q94vP-12" value="Semmi" style="rounded=0;whiteSpace=wrap;html=1;" parent="1" vertex="1">
          <mxGeometry x="20" y="680" width="70" height="40" as="geometry" />
        </mxCell>
        <mxCell id="ne0dGpzM1XJQtN-Q94vP-13" value="Műhely" style="rounded=0;whiteSpace=wrap;html=1;" parent="1" vertex="1">
          <mxGeometry x="-80" y="680" width="70" height="40" as="geometry" />
        </mxCell>
        <mxCell id="ne0dGpzM1XJQtN-Q94vP-14" value="Anyag" style="rounded=0;whiteSpace=wrap;html=1;" parent="1" vertex="1">
          <mxGeometry x="-200" y="680" width="70" height="40" as="geometry" />
        </mxCell>
        <mxCell id="ne0dGpzM1XJQtN-Q94vP-18" style="edgeStyle=orthogonalEdgeStyle;rounded=0;orthogonalLoop=1;jettySize=auto;html=1;exitX=1;exitY=0.5;exitDx=0;exitDy=0;entryX=0.614;entryY=-0.05;entryDx=0;entryDy=0;entryPerimeter=0;" parent="1" source="ne0dGpzM1XJQtN-Q94vP-11" target="ne0dGpzM1XJQtN-Q94vP-12" edge="1">
          <mxGeometry relative="1" as="geometry" />
        </mxCell>
        <mxCell id="ne0dGpzM1XJQtN-Q94vP-23" style="edgeStyle=orthogonalEdgeStyle;rounded=0;orthogonalLoop=1;jettySize=auto;html=1;exitX=0;exitY=0.5;exitDx=0;exitDy=0;entryX=0.5;entryY=0;entryDx=0;entryDy=0;" parent="1" source="ne0dGpzM1XJQtN-Q94vP-19" target="ne0dGpzM1XJQtN-Q94vP-20" edge="1">
          <mxGeometry relative="1" as="geometry" />
        </mxCell>
        <mxCell id="ne0dGpzM1XJQtN-Q94vP-24" style="edgeStyle=orthogonalEdgeStyle;rounded=0;orthogonalLoop=1;jettySize=auto;html=1;exitX=1;exitY=0.5;exitDx=0;exitDy=0;entryX=0.5;entryY=0;entryDx=0;entryDy=0;" parent="1" source="ne0dGpzM1XJQtN-Q94vP-19" target="ne0dGpzM1XJQtN-Q94vP-22" edge="1">
          <mxGeometry relative="1" as="geometry" />
        </mxCell>
        <mxCell id="ne0dGpzM1XJQtN-Q94vP-25" style="edgeStyle=orthogonalEdgeStyle;rounded=0;orthogonalLoop=1;jettySize=auto;html=1;exitX=0.5;exitY=1;exitDx=0;exitDy=0;" parent="1" source="ne0dGpzM1XJQtN-Q94vP-19" target="ne0dGpzM1XJQtN-Q94vP-21" edge="1">
          <mxGeometry relative="1" as="geometry" />
        </mxCell>
        <mxCell id="ne0dGpzM1XJQtN-Q94vP-19" value="Trade a cellatárssal" style="rounded=0;whiteSpace=wrap;html=1;" parent="1" vertex="1">
          <mxGeometry x="-200" y="720" width="70" height="40" as="geometry" />
        </mxCell>
        <mxCell id="ne0dGpzM1XJQtN-Q94vP-20" value="Odaadni az ebédet" style="rounded=0;whiteSpace=wrap;html=1;" parent="1" vertex="1">
          <mxGeometry x="-310" y="800" width="70" height="40" as="geometry" />
        </mxCell>
        <mxCell id="ne0dGpzM1XJQtN-Q94vP-66" style="edgeStyle=orthogonalEdgeStyle;rounded=0;orthogonalLoop=1;jettySize=auto;html=1;exitX=0.5;exitY=1;exitDx=0;exitDy=0;" parent="1" source="ne0dGpzM1XJQtN-Q94vP-21" target="ne0dGpzM1XJQtN-Q94vP-54" edge="1">
          <mxGeometry relative="1" as="geometry">
            <Array as="points">
              <mxPoint x="-165" y="1060" />
              <mxPoint x="-15" y="1060" />
            </Array>
          </mxGeometry>
        </mxCell>
        <mxCell id="ne0dGpzM1XJQtN-Q94vP-21" value="Aludhat az ágyadban" style="rounded=0;whiteSpace=wrap;html=1;" parent="1" vertex="1">
          <mxGeometry x="-200" y="800" width="70" height="40" as="geometry" />
        </mxCell>
        <mxCell id="ne0dGpzM1XJQtN-Q94vP-62" style="edgeStyle=orthogonalEdgeStyle;rounded=0;orthogonalLoop=1;jettySize=auto;html=1;exitX=1;exitY=0.5;exitDx=0;exitDy=0;entryX=0.5;entryY=0;entryDx=0;entryDy=0;" parent="1" source="ne0dGpzM1XJQtN-Q94vP-22" target="ne0dGpzM1XJQtN-Q94vP-58" edge="1">
          <mxGeometry relative="1" as="geometry" />
        </mxCell>
        <mxCell id="ne0dGpzM1XJQtN-Q94vP-63" style="edgeStyle=orthogonalEdgeStyle;rounded=0;orthogonalLoop=1;jettySize=auto;html=1;exitX=1;exitY=0.5;exitDx=0;exitDy=0;entryX=0.5;entryY=0;entryDx=0;entryDy=0;" parent="1" source="ne0dGpzM1XJQtN-Q94vP-22" target="ne0dGpzM1XJQtN-Q94vP-57" edge="1">
          <mxGeometry relative="1" as="geometry" />
        </mxCell>
        <mxCell id="ne0dGpzM1XJQtN-Q94vP-22" value="Semmi" style="rounded=0;whiteSpace=wrap;html=1;" parent="1" vertex="1">
          <mxGeometry x="-90" y="800" width="70" height="40" as="geometry" />
        </mxCell>
        <mxCell id="ne0dGpzM1XJQtN-Q94vP-30" style="edgeStyle=orthogonalEdgeStyle;rounded=0;orthogonalLoop=1;jettySize=auto;html=1;exitX=0;exitY=0.5;exitDx=0;exitDy=0;entryX=0.5;entryY=0;entryDx=0;entryDy=0;" parent="1" source="ne0dGpzM1XJQtN-Q94vP-26" target="ne0dGpzM1XJQtN-Q94vP-28" edge="1">
          <mxGeometry relative="1" as="geometry" />
        </mxCell>
        <mxCell id="ne0dGpzM1XJQtN-Q94vP-31" style="edgeStyle=orthogonalEdgeStyle;rounded=0;orthogonalLoop=1;jettySize=auto;html=1;exitX=1;exitY=0.5;exitDx=0;exitDy=0;" parent="1" source="ne0dGpzM1XJQtN-Q94vP-26" target="ne0dGpzM1XJQtN-Q94vP-29" edge="1">
          <mxGeometry relative="1" as="geometry" />
        </mxCell>
        <mxCell id="ne0dGpzM1XJQtN-Q94vP-26" value="Tiéd&lt;br&gt;a bökőt" style="rounded=0;whiteSpace=wrap;html=1;" parent="1" vertex="1">
          <mxGeometry x="-310" y="840" width="70" height="40" as="geometry" />
        </mxCell>
        <mxCell id="ne0dGpzM1XJQtN-Q94vP-38" style="edgeStyle=orthogonalEdgeStyle;rounded=0;orthogonalLoop=1;jettySize=auto;html=1;exitX=0;exitY=0.5;exitDx=0;exitDy=0;entryX=0.5;entryY=0;entryDx=0;entryDy=0;" parent="1" source="ne0dGpzM1XJQtN-Q94vP-28" target="ne0dGpzM1XJQtN-Q94vP-37" edge="1">
          <mxGeometry relative="1" as="geometry" />
        </mxCell>
        <mxCell id="ne0dGpzM1XJQtN-Q94vP-28" value="Másnap próbálsz kulcsot csinálni" style="rounded=0;whiteSpace=wrap;html=1;" parent="1" vertex="1">
          <mxGeometry x="-400" y="890" width="80" height="70" as="geometry" />
        </mxCell>
        <mxCell id="ne0dGpzM1XJQtN-Q94vP-29" value="Nem próbálsz másnap kulcsot csinálni" style="rounded=0;whiteSpace=wrap;html=1;" parent="1" vertex="1">
          <mxGeometry x="-260" y="900" width="80" height="60" as="geometry" />
        </mxCell>
        <mxCell id="ne0dGpzM1XJQtN-Q94vP-32" value="Nyertél" style="rounded=0;whiteSpace=wrap;html=1;" parent="1" vertex="1">
          <mxGeometry x="-350" y="1290" width="70" height="40" as="geometry" />
        </mxCell>
        <mxCell id="ne0dGpzM1XJQtN-Q94vP-60" style="edgeStyle=orthogonalEdgeStyle;rounded=0;orthogonalLoop=1;jettySize=auto;html=1;exitX=0.5;exitY=1;exitDx=0;exitDy=0;" parent="1" source="ne0dGpzM1XJQtN-Q94vP-33" target="ne0dGpzM1XJQtN-Q94vP-59" edge="1">
          <mxGeometry relative="1" as="geometry" />
        </mxCell>
        <mxCell id="ne0dGpzM1XJQtN-Q94vP-33" value="50%&lt;br&gt;elkapnak" style="rounded=0;whiteSpace=wrap;html=1;" parent="1" vertex="1">
          <mxGeometry x="-240" y="1200" width="70" height="40" as="geometry" />
        </mxCell>
        <mxCell id="ne0dGpzM1XJQtN-Q94vP-49" style="edgeStyle=orthogonalEdgeStyle;rounded=0;orthogonalLoop=1;jettySize=auto;html=1;exitX=0.5;exitY=1;exitDx=0;exitDy=0;entryX=0.5;entryY=0;entryDx=0;entryDy=0;" parent="1" source="ne0dGpzM1XJQtN-Q94vP-34" target="ne0dGpzM1XJQtN-Q94vP-32" edge="1">
          <mxGeometry relative="1" as="geometry" />
        </mxCell>
        <mxCell id="ne0dGpzM1XJQtN-Q94vP-34" value="50%&amp;nbsp;&lt;br&gt;kiszöksz" style="rounded=0;whiteSpace=wrap;html=1;" parent="1" vertex="1">
          <mxGeometry x="-350" y="1200" width="70" height="40" as="geometry" />
        </mxCell>
        <mxCell id="ne0dGpzM1XJQtN-Q94vP-47" style="edgeStyle=orthogonalEdgeStyle;rounded=0;orthogonalLoop=1;jettySize=auto;html=1;exitX=1;exitY=0.5;exitDx=0;exitDy=0;entryX=1;entryY=0.5;entryDx=0;entryDy=0;" parent="1" source="ne0dGpzM1XJQtN-Q94vP-35" target="ne0dGpzM1XJQtN-Q94vP-33" edge="1">
          <mxGeometry relative="1" as="geometry" />
        </mxCell>
        <mxCell id="ne0dGpzM1XJQtN-Q94vP-48" style="edgeStyle=orthogonalEdgeStyle;rounded=0;orthogonalLoop=1;jettySize=auto;html=1;exitX=0;exitY=0.5;exitDx=0;exitDy=0;entryX=1;entryY=0.5;entryDx=0;entryDy=0;" parent="1" source="ne0dGpzM1XJQtN-Q94vP-35" target="ne0dGpzM1XJQtN-Q94vP-34" edge="1">
          <mxGeometry relative="1" as="geometry" />
        </mxCell>
        <mxCell id="ne0dGpzM1XJQtN-Q94vP-35" value="Másnap szöksz" style="rounded=0;whiteSpace=wrap;html=1;" parent="1" vertex="1">
          <mxGeometry x="-240" y="1080" width="70" height="40" as="geometry" />
        </mxCell>
        <mxCell id="ne0dGpzM1XJQtN-Q94vP-41" style="edgeStyle=orthogonalEdgeStyle;rounded=0;orthogonalLoop=1;jettySize=auto;html=1;exitX=0.5;exitY=1;exitDx=0;exitDy=0;entryX=0.5;entryY=0;entryDx=0;entryDy=0;" parent="1" source="ne0dGpzM1XJQtN-Q94vP-36" target="ne0dGpzM1XJQtN-Q94vP-40" edge="1">
          <mxGeometry relative="1" as="geometry" />
        </mxCell>
        <mxCell id="ne0dGpzM1XJQtN-Q94vP-42" style="edgeStyle=orthogonalEdgeStyle;rounded=0;orthogonalLoop=1;jettySize=auto;html=1;exitX=1;exitY=0.5;exitDx=0;exitDy=0;entryX=0.5;entryY=0;entryDx=0;entryDy=0;" parent="1" source="ne0dGpzM1XJQtN-Q94vP-36" target="ne0dGpzM1XJQtN-Q94vP-35" edge="1">
          <mxGeometry relative="1" as="geometry" />
        </mxCell>
        <mxCell id="ne0dGpzM1XJQtN-Q94vP-36" value="50% &lt;br&gt;sikerül" style="rounded=0;whiteSpace=wrap;html=1;" parent="1" vertex="1">
          <mxGeometry x="-340" y="1000" width="70" height="40" as="geometry" />
        </mxCell>
        <mxCell id="ne0dGpzM1XJQtN-Q94vP-71" style="edgeStyle=orthogonalEdgeStyle;rounded=0;orthogonalLoop=1;jettySize=auto;html=1;exitX=0.5;exitY=1;exitDx=0;exitDy=0;entryX=0.5;entryY=0;entryDx=0;entryDy=0;" parent="1" source="ne0dGpzM1XJQtN-Q94vP-37" target="ne0dGpzM1XJQtN-Q94vP-52" edge="1">
          <mxGeometry relative="1" as="geometry" />
        </mxCell>
        <mxCell id="ne0dGpzM1XJQtN-Q94vP-37" value="50% elcseszed" style="rounded=0;whiteSpace=wrap;html=1;" parent="1" vertex="1">
          <mxGeometry x="-460" y="1000" width="70" height="40" as="geometry" />
        </mxCell>
        <mxCell id="ne0dGpzM1XJQtN-Q94vP-39" style="edgeStyle=orthogonalEdgeStyle;rounded=0;orthogonalLoop=1;jettySize=auto;html=1;exitX=1;exitY=0.5;exitDx=0;exitDy=0;entryX=0.6;entryY=0.05;entryDx=0;entryDy=0;entryPerimeter=0;" parent="1" source="ne0dGpzM1XJQtN-Q94vP-28" target="ne0dGpzM1XJQtN-Q94vP-36" edge="1">
          <mxGeometry relative="1" as="geometry" />
        </mxCell>
        <mxCell id="ne0dGpzM1XJQtN-Q94vP-43" style="edgeStyle=orthogonalEdgeStyle;rounded=0;orthogonalLoop=1;jettySize=auto;html=1;exitX=0.5;exitY=1;exitDx=0;exitDy=0;entryX=0.5;entryY=0;entryDx=0;entryDy=0;" parent="1" source="ne0dGpzM1XJQtN-Q94vP-40" target="ne0dGpzM1XJQtN-Q94vP-34" edge="1">
          <mxGeometry relative="1" as="geometry" />
        </mxCell>
        <mxCell id="ne0dGpzM1XJQtN-Q94vP-46" style="edgeStyle=orthogonalEdgeStyle;rounded=0;orthogonalLoop=1;jettySize=auto;html=1;exitX=0.5;exitY=1;exitDx=0;exitDy=0;entryX=0.5;entryY=0;entryDx=0;entryDy=0;" parent="1" source="ne0dGpzM1XJQtN-Q94vP-40" target="ne0dGpzM1XJQtN-Q94vP-33" edge="1">
          <mxGeometry relative="1" as="geometry" />
        </mxCell>
        <mxCell id="ne0dGpzM1XJQtN-Q94vP-40" value="Aznap szöksz" style="rounded=0;whiteSpace=wrap;html=1;" parent="1" vertex="1">
          <mxGeometry x="-350" y="1080" width="70" height="40" as="geometry" />
        </mxCell>
        <mxCell id="ne0dGpzM1XJQtN-Q94vP-50" value="Venni valakitől" style="rounded=0;whiteSpace=wrap;html=1;" parent="1" vertex="1">
          <mxGeometry x="610" y="270" width="70" height="40" as="geometry" />
        </mxCell>
        <mxCell id="ne0dGpzM1XJQtN-Q94vP-90" style="edgeStyle=orthogonalEdgeStyle;rounded=0;orthogonalLoop=1;jettySize=auto;html=1;exitX=0.5;exitY=1;exitDx=0;exitDy=0;entryX=0.5;entryY=0;entryDx=0;entryDy=0;" parent="1" source="ne0dGpzM1XJQtN-Q94vP-51" target="ne0dGpzM1XJQtN-Q94vP-88" edge="1">
          <mxGeometry relative="1" as="geometry" />
        </mxCell>
        <mxCell id="ne0dGpzM1XJQtN-Q94vP-91" style="edgeStyle=orthogonalEdgeStyle;rounded=0;orthogonalLoop=1;jettySize=auto;html=1;exitX=0.5;exitY=1;exitDx=0;exitDy=0;entryX=0.5;entryY=0;entryDx=0;entryDy=0;" parent="1" source="ne0dGpzM1XJQtN-Q94vP-51" target="ne0dGpzM1XJQtN-Q94vP-87" edge="1">
          <mxGeometry relative="1" as="geometry" />
        </mxCell>
        <mxCell id="ne0dGpzM1XJQtN-Q94vP-51" value="Csempészni a vágót" style="rounded=0;whiteSpace=wrap;html=1;" parent="1" vertex="1">
          <mxGeometry x="414" y="270" width="70" height="40" as="geometry" />
        </mxCell>
        <mxCell id="ne0dGpzM1XJQtN-Q94vP-52" value="Elkapnak&lt;br&gt;Vége" style="rounded=0;whiteSpace=wrap;html=1;" parent="1" vertex="1">
          <mxGeometry x="-540" y="1100" width="70" height="40" as="geometry" />
        </mxCell>
        <mxCell id="ne0dGpzM1XJQtN-Q94vP-68" style="edgeStyle=orthogonalEdgeStyle;rounded=0;orthogonalLoop=1;jettySize=auto;html=1;exitX=0;exitY=0.5;exitDx=0;exitDy=0;entryX=0.75;entryY=0;entryDx=0;entryDy=0;" parent="1" source="ne0dGpzM1XJQtN-Q94vP-53" target="ne0dGpzM1XJQtN-Q94vP-37" edge="1">
          <mxGeometry relative="1" as="geometry" />
        </mxCell>
        <mxCell id="ne0dGpzM1XJQtN-Q94vP-70" style="edgeStyle=orthogonalEdgeStyle;rounded=0;orthogonalLoop=1;jettySize=auto;html=1;exitX=0;exitY=0.5;exitDx=0;exitDy=0;entryX=0.75;entryY=0;entryDx=0;entryDy=0;" parent="1" source="ne0dGpzM1XJQtN-Q94vP-53" target="ne0dGpzM1XJQtN-Q94vP-36" edge="1">
          <mxGeometry relative="1" as="geometry" />
        </mxCell>
        <mxCell id="ne0dGpzM1XJQtN-Q94vP-53" value="Holnapután" style="rounded=0;whiteSpace=wrap;html=1;" parent="1" vertex="1">
          <mxGeometry x="-255" y="960" width="70" height="40" as="geometry" />
        </mxCell>
        <mxCell id="ne0dGpzM1XJQtN-Q94vP-54" value="Nem szerezte meg a bökőt" style="rounded=0;whiteSpace=wrap;html=1;" parent="1" vertex="1">
          <mxGeometry x="-50" y="1100" width="70" height="40" as="geometry" />
        </mxCell>
        <mxCell id="ne0dGpzM1XJQtN-Q94vP-55" value="50%&amp;nbsp;&lt;br&gt;vesztesz" style="rounded=0;whiteSpace=wrap;html=1;" parent="1" vertex="1">
          <mxGeometry x="40" y="990" width="70" height="40" as="geometry" />
        </mxCell>
        <mxCell id="ne0dGpzM1XJQtN-Q94vP-56" value="50%&lt;br&gt;nyersz" style="rounded=0;whiteSpace=wrap;html=1;" parent="1" vertex="1">
          <mxGeometry x="-50" y="990" width="70" height="40" as="geometry" />
        </mxCell>
        <mxCell id="ne0dGpzM1XJQtN-Q94vP-67" style="edgeStyle=orthogonalEdgeStyle;rounded=0;orthogonalLoop=1;jettySize=auto;html=1;exitX=1;exitY=0.5;exitDx=0;exitDy=0;entryX=1;entryY=0.75;entryDx=0;entryDy=0;" parent="1" source="ne0dGpzM1XJQtN-Q94vP-57" target="ne0dGpzM1XJQtN-Q94vP-54" edge="1">
          <mxGeometry relative="1" as="geometry" />
        </mxCell>
        <mxCell id="ne0dGpzM1XJQtN-Q94vP-57" value="No fight" style="rounded=0;whiteSpace=wrap;html=1;" parent="1" vertex="1">
          <mxGeometry x="90" y="880" width="70" height="40" as="geometry" />
        </mxCell>
        <mxCell id="ne0dGpzM1XJQtN-Q94vP-64" style="edgeStyle=orthogonalEdgeStyle;rounded=0;orthogonalLoop=1;jettySize=auto;html=1;exitX=0.5;exitY=1;exitDx=0;exitDy=0;entryX=0.5;entryY=0;entryDx=0;entryDy=0;" parent="1" source="ne0dGpzM1XJQtN-Q94vP-58" target="ne0dGpzM1XJQtN-Q94vP-56" edge="1">
          <mxGeometry relative="1" as="geometry" />
        </mxCell>
        <mxCell id="ne0dGpzM1XJQtN-Q94vP-65" style="edgeStyle=orthogonalEdgeStyle;rounded=0;orthogonalLoop=1;jettySize=auto;html=1;exitX=0.5;exitY=1;exitDx=0;exitDy=0;" parent="1" source="ne0dGpzM1XJQtN-Q94vP-58" target="ne0dGpzM1XJQtN-Q94vP-55" edge="1">
          <mxGeometry relative="1" as="geometry" />
        </mxCell>
        <mxCell id="ne0dGpzM1XJQtN-Q94vP-58" value="Fight" style="rounded=0;whiteSpace=wrap;html=1;" parent="1" vertex="1">
          <mxGeometry x="-10" y="880" width="70" height="40" as="geometry" />
        </mxCell>
        <mxCell id="ne0dGpzM1XJQtN-Q94vP-59" value="Vesztettél" style="rounded=0;whiteSpace=wrap;html=1;" parent="1" vertex="1">
          <mxGeometry x="-240" y="1290" width="70" height="40" as="geometry" />
        </mxCell>
        <mxCell id="ne0dGpzM1XJQtN-Q94vP-69" style="edgeStyle=orthogonalEdgeStyle;rounded=0;orthogonalLoop=1;jettySize=auto;html=1;exitX=0.5;exitY=1;exitDx=0;exitDy=0;" parent="1" source="ne0dGpzM1XJQtN-Q94vP-53" target="ne0dGpzM1XJQtN-Q94vP-53" edge="1">
          <mxGeometry relative="1" as="geometry" />
        </mxCell>
        <mxCell id="ne0dGpzM1XJQtN-Q94vP-113" style="edgeStyle=orthogonalEdgeStyle;rounded=0;orthogonalLoop=1;jettySize=auto;html=1;exitX=0.5;exitY=1;exitDx=0;exitDy=0;entryX=0.5;entryY=0;entryDx=0;entryDy=0;" parent="1" source="ne0dGpzM1XJQtN-Q94vP-74" target="ne0dGpzM1XJQtN-Q94vP-75" edge="1">
          <mxGeometry relative="1" as="geometry" />
        </mxCell>
        <mxCell id="ne0dGpzM1XJQtN-Q94vP-116" style="edgeStyle=orthogonalEdgeStyle;rounded=0;orthogonalLoop=1;jettySize=auto;html=1;exitX=0.5;exitY=1;exitDx=0;exitDy=0;entryX=0.75;entryY=0;entryDx=0;entryDy=0;" parent="1" source="ne0dGpzM1XJQtN-Q94vP-74" target="ne0dGpzM1XJQtN-Q94vP-76" edge="1">
          <mxGeometry relative="1" as="geometry">
            <Array as="points">
              <mxPoint x="575" y="950" />
              <mxPoint x="443" y="950" />
            </Array>
          </mxGeometry>
        </mxCell>
        <mxCell id="ne0dGpzM1XJQtN-Q94vP-74" value="barát" style="rounded=0;whiteSpace=wrap;html=1;" parent="1" vertex="1">
          <mxGeometry x="540" y="885" width="70" height="40" as="geometry" />
        </mxCell>
        <mxCell id="ne0dGpzM1XJQtN-Q94vP-120" style="edgeStyle=orthogonalEdgeStyle;rounded=0;orthogonalLoop=1;jettySize=auto;html=1;exitX=0.5;exitY=1;exitDx=0;exitDy=0;entryX=0.5;entryY=0;entryDx=0;entryDy=0;" parent="1" source="ne0dGpzM1XJQtN-Q94vP-75" target="ne0dGpzM1XJQtN-Q94vP-117" edge="1">
          <mxGeometry relative="1" as="geometry" />
        </mxCell>
        <mxCell id="ne0dGpzM1XJQtN-Q94vP-75" value="kúszás" style="rounded=0;whiteSpace=wrap;html=1;" parent="1" vertex="1">
          <mxGeometry x="500" y="980" width="70" height="40" as="geometry" />
        </mxCell>
        <mxCell id="ne0dGpzM1XJQtN-Q94vP-119" style="edgeStyle=orthogonalEdgeStyle;rounded=0;orthogonalLoop=1;jettySize=auto;html=1;exitX=0.5;exitY=1;exitDx=0;exitDy=0;entryX=0.5;entryY=0;entryDx=0;entryDy=0;" parent="1" source="ne0dGpzM1XJQtN-Q94vP-76" target="ne0dGpzM1XJQtN-Q94vP-118" edge="1">
          <mxGeometry relative="1" as="geometry" />
        </mxCell>
        <mxCell id="ne0dGpzM1XJQtN-Q94vP-76" value="futás" style="rounded=0;whiteSpace=wrap;html=1;" parent="1" vertex="1">
          <mxGeometry x="390" y="980" width="70" height="40" as="geometry" />
        </mxCell>
        <mxCell id="ne0dGpzM1XJQtN-Q94vP-114" style="edgeStyle=orthogonalEdgeStyle;rounded=0;orthogonalLoop=1;jettySize=auto;html=1;exitX=0.5;exitY=1;exitDx=0;exitDy=0;entryX=0;entryY=0.5;entryDx=0;entryDy=0;" parent="1" source="ne0dGpzM1XJQtN-Q94vP-77" target="ne0dGpzM1XJQtN-Q94vP-75" edge="1">
          <mxGeometry relative="1" as="geometry">
            <Array as="points">
              <mxPoint x="445" y="940" />
              <mxPoint x="480" y="940" />
              <mxPoint x="480" y="1000" />
            </Array>
          </mxGeometry>
        </mxCell>
        <mxCell id="ne0dGpzM1XJQtN-Q94vP-115" style="edgeStyle=orthogonalEdgeStyle;rounded=0;orthogonalLoop=1;jettySize=auto;html=1;exitX=0.5;exitY=1;exitDx=0;exitDy=0;entryX=0.5;entryY=0;entryDx=0;entryDy=0;" parent="1" source="ne0dGpzM1XJQtN-Q94vP-77" target="ne0dGpzM1XJQtN-Q94vP-76" edge="1">
          <mxGeometry relative="1" as="geometry">
            <Array as="points">
              <mxPoint x="445" y="940" />
              <mxPoint x="425" y="940" />
            </Array>
          </mxGeometry>
        </mxCell>
        <mxCell id="ne0dGpzM1XJQtN-Q94vP-77" value="testvér" style="rounded=0;whiteSpace=wrap;html=1;" parent="1" vertex="1">
          <mxGeometry x="410" y="885" width="70" height="40" as="geometry" />
        </mxCell>
        <mxCell id="ne0dGpzM1XJQtN-Q94vP-102" style="edgeStyle=orthogonalEdgeStyle;rounded=0;orthogonalLoop=1;jettySize=auto;html=1;exitX=0.5;exitY=1;exitDx=0;exitDy=0;entryX=0.5;entryY=0;entryDx=0;entryDy=0;" parent="1" source="ne0dGpzM1XJQtN-Q94vP-78" target="ne0dGpzM1XJQtN-Q94vP-80" edge="1">
          <mxGeometry relative="1" as="geometry" />
        </mxCell>
        <mxCell id="ne0dGpzM1XJQtN-Q94vP-103" style="edgeStyle=orthogonalEdgeStyle;rounded=0;orthogonalLoop=1;jettySize=auto;html=1;exitX=0.5;exitY=1;exitDx=0;exitDy=0;entryX=0.5;entryY=0;entryDx=0;entryDy=0;" parent="1" source="ne0dGpzM1XJQtN-Q94vP-78" target="ne0dGpzM1XJQtN-Q94vP-79" edge="1">
          <mxGeometry relative="1" as="geometry">
            <Array as="points">
              <mxPoint x="535" y="780" />
              <mxPoint x="615" y="780" />
            </Array>
          </mxGeometry>
        </mxCell>
        <mxCell id="ne0dGpzM1XJQtN-Q94vP-78" value="szökés&lt;br&gt;ideje" style="rounded=0;whiteSpace=wrap;html=1;" parent="1" vertex="1">
          <mxGeometry x="500" y="720" width="70" height="40" as="geometry" />
        </mxCell>
        <mxCell id="ne0dGpzM1XJQtN-Q94vP-110" style="edgeStyle=orthogonalEdgeStyle;rounded=0;orthogonalLoop=1;jettySize=auto;html=1;exitX=1;exitY=0.5;exitDx=0;exitDy=0;entryX=1;entryY=0.75;entryDx=0;entryDy=0;" parent="1" source="ne0dGpzM1XJQtN-Q94vP-79" target="ne0dGpzM1XJQtN-Q94vP-74" edge="1">
          <mxGeometry relative="1" as="geometry" />
        </mxCell>
        <mxCell id="ne0dGpzM1XJQtN-Q94vP-111" style="edgeStyle=orthogonalEdgeStyle;rounded=0;orthogonalLoop=1;jettySize=auto;html=1;exitX=0.5;exitY=1;exitDx=0;exitDy=0;" parent="1" source="ne0dGpzM1XJQtN-Q94vP-79" edge="1">
          <mxGeometry relative="1" as="geometry">
            <mxPoint x="450" y="880" as="targetPoint" />
          </mxGeometry>
        </mxCell>
        <mxCell id="ne0dGpzM1XJQtN-Q94vP-79" value="TV nézés alatt" style="rounded=0;whiteSpace=wrap;html=1;" parent="1" vertex="1">
          <mxGeometry x="580" y="800" width="70" height="40" as="geometry" />
        </mxCell>
        <mxCell id="ne0dGpzM1XJQtN-Q94vP-109" style="edgeStyle=orthogonalEdgeStyle;rounded=0;orthogonalLoop=1;jettySize=auto;html=1;exitX=0;exitY=0.5;exitDx=0;exitDy=0;entryX=0;entryY=0.75;entryDx=0;entryDy=0;" parent="1" source="ne0dGpzM1XJQtN-Q94vP-80" target="ne0dGpzM1XJQtN-Q94vP-77" edge="1">
          <mxGeometry relative="1" as="geometry" />
        </mxCell>
        <mxCell id="ne0dGpzM1XJQtN-Q94vP-112" style="edgeStyle=orthogonalEdgeStyle;rounded=0;orthogonalLoop=1;jettySize=auto;html=1;exitX=0.75;exitY=1;exitDx=0;exitDy=0;entryX=0;entryY=0.5;entryDx=0;entryDy=0;" parent="1" source="ne0dGpzM1XJQtN-Q94vP-80" target="ne0dGpzM1XJQtN-Q94vP-74" edge="1">
          <mxGeometry relative="1" as="geometry" />
        </mxCell>
        <mxCell id="ne0dGpzM1XJQtN-Q94vP-80" value="este" style="rounded=0;whiteSpace=wrap;html=1;" parent="1" vertex="1">
          <mxGeometry x="450" y="800" width="70" height="40" as="geometry" />
        </mxCell>
        <mxCell id="ne0dGpzM1XJQtN-Q94vP-81" value="Vége" style="rounded=0;whiteSpace=wrap;html=1;" parent="1" vertex="1">
          <mxGeometry x="364" y="761.45" width="70" height="40" as="geometry" />
        </mxCell>
        <mxCell id="ne0dGpzM1XJQtN-Q94vP-82" value="megtartja" style="rounded=0;whiteSpace=wrap;html=1;" parent="1" vertex="1">
          <mxGeometry x="500" y="680" width="70" height="40" as="geometry" />
        </mxCell>
        <mxCell id="ne0dGpzM1XJQtN-Q94vP-101" style="edgeStyle=orthogonalEdgeStyle;rounded=0;orthogonalLoop=1;jettySize=auto;html=1;exitX=0;exitY=0.5;exitDx=0;exitDy=0;entryX=0.5;entryY=0;entryDx=0;entryDy=0;" parent="1" source="ne0dGpzM1XJQtN-Q94vP-83" target="ne0dGpzM1XJQtN-Q94vP-81" edge="1">
          <mxGeometry relative="1" as="geometry">
            <Array as="points">
              <mxPoint x="390" y="700" />
              <mxPoint x="390" y="741" />
              <mxPoint x="399" y="741" />
            </Array>
          </mxGeometry>
        </mxCell>
        <mxCell id="ne0dGpzM1XJQtN-Q94vP-83" value="eldobja" style="rounded=0;whiteSpace=wrap;html=1;" parent="1" vertex="1">
          <mxGeometry x="364" y="680" width="70" height="40" as="geometry" />
        </mxCell>
        <mxCell id="ne0dGpzM1XJQtN-Q94vP-99" style="edgeStyle=orthogonalEdgeStyle;rounded=0;orthogonalLoop=1;jettySize=auto;html=1;exitX=0.5;exitY=1;exitDx=0;exitDy=0;entryX=0.5;entryY=0;entryDx=0;entryDy=0;" parent="1" source="ne0dGpzM1XJQtN-Q94vP-84" target="ne0dGpzM1XJQtN-Q94vP-83" edge="1">
          <mxGeometry relative="1" as="geometry" />
        </mxCell>
        <mxCell id="ne0dGpzM1XJQtN-Q94vP-84" value="Ellenőrzés" style="rounded=0;whiteSpace=wrap;html=1;" parent="1" vertex="1">
          <mxGeometry x="440" y="580" width="70" height="40" as="geometry" />
        </mxCell>
        <mxCell id="ne0dGpzM1XJQtN-Q94vP-97" style="edgeStyle=orthogonalEdgeStyle;rounded=0;orthogonalLoop=1;jettySize=auto;html=1;exitX=0.5;exitY=1;exitDx=0;exitDy=0;entryX=0.5;entryY=0;entryDx=0;entryDy=0;" parent="1" source="ne0dGpzM1XJQtN-Q94vP-85" target="ne0dGpzM1XJQtN-Q94vP-84" edge="1">
          <mxGeometry relative="1" as="geometry" />
        </mxCell>
        <mxCell id="ne0dGpzM1XJQtN-Q94vP-85" value="Levél" style="rounded=0;whiteSpace=wrap;html=1;" parent="1" vertex="1">
          <mxGeometry x="500" y="470" width="70" height="40" as="geometry" />
        </mxCell>
        <mxCell id="ne0dGpzM1XJQtN-Q94vP-96" style="edgeStyle=orthogonalEdgeStyle;rounded=0;orthogonalLoop=1;jettySize=auto;html=1;exitX=0.5;exitY=1;exitDx=0;exitDy=0;entryX=0.5;entryY=0;entryDx=0;entryDy=0;" parent="1" source="ne0dGpzM1XJQtN-Q94vP-86" target="ne0dGpzM1XJQtN-Q94vP-84" edge="1">
          <mxGeometry relative="1" as="geometry" />
        </mxCell>
        <mxCell id="ne0dGpzM1XJQtN-Q94vP-86" value="Telefon" style="rounded=0;whiteSpace=wrap;html=1;" parent="1" vertex="1">
          <mxGeometry x="390" y="470" width="70" height="40" as="geometry" />
        </mxCell>
        <mxCell id="ne0dGpzM1XJQtN-Q94vP-94" style="edgeStyle=orthogonalEdgeStyle;rounded=0;orthogonalLoop=1;jettySize=auto;html=1;exitX=0.5;exitY=1;exitDx=0;exitDy=0;entryX=1;entryY=0.75;entryDx=0;entryDy=0;" parent="1" source="ne0dGpzM1XJQtN-Q94vP-87" target="ne0dGpzM1XJQtN-Q94vP-86" edge="1">
          <mxGeometry relative="1" as="geometry">
            <Array as="points">
              <mxPoint x="480" y="410" />
              <mxPoint x="480" y="500" />
            </Array>
          </mxGeometry>
        </mxCell>
        <mxCell id="ne0dGpzM1XJQtN-Q94vP-95" style="edgeStyle=orthogonalEdgeStyle;rounded=0;orthogonalLoop=1;jettySize=auto;html=1;exitX=1;exitY=0.5;exitDx=0;exitDy=0;entryX=1;entryY=0.75;entryDx=0;entryDy=0;" parent="1" source="ne0dGpzM1XJQtN-Q94vP-87" target="ne0dGpzM1XJQtN-Q94vP-85" edge="1">
          <mxGeometry relative="1" as="geometry" />
        </mxCell>
        <mxCell id="ne0dGpzM1XJQtN-Q94vP-87" value="Testvér" style="rounded=0;whiteSpace=wrap;html=1;" parent="1" vertex="1">
          <mxGeometry x="470" y="370" width="70" height="40" as="geometry" />
        </mxCell>
        <mxCell id="ne0dGpzM1XJQtN-Q94vP-92" style="edgeStyle=orthogonalEdgeStyle;rounded=0;orthogonalLoop=1;jettySize=auto;html=1;exitX=0.5;exitY=1;exitDx=0;exitDy=0;entryX=0.5;entryY=0;entryDx=0;entryDy=0;" parent="1" source="ne0dGpzM1XJQtN-Q94vP-88" target="ne0dGpzM1XJQtN-Q94vP-85" edge="1">
          <mxGeometry relative="1" as="geometry" />
        </mxCell>
        <mxCell id="ne0dGpzM1XJQtN-Q94vP-93" style="edgeStyle=orthogonalEdgeStyle;rounded=0;orthogonalLoop=1;jettySize=auto;html=1;exitX=0.5;exitY=1;exitDx=0;exitDy=0;entryX=0.25;entryY=0;entryDx=0;entryDy=0;" parent="1" source="ne0dGpzM1XJQtN-Q94vP-88" target="ne0dGpzM1XJQtN-Q94vP-86" edge="1">
          <mxGeometry relative="1" as="geometry" />
        </mxCell>
        <mxCell id="ne0dGpzM1XJQtN-Q94vP-88" value="Barát" style="rounded=0;whiteSpace=wrap;html=1;" parent="1" vertex="1">
          <mxGeometry x="374" y="370" width="70" height="40" as="geometry" />
        </mxCell>
        <mxCell id="ne0dGpzM1XJQtN-Q94vP-100" style="edgeStyle=orthogonalEdgeStyle;rounded=0;orthogonalLoop=1;jettySize=auto;html=1;exitX=0.5;exitY=1;exitDx=0;exitDy=0;entryX=0.6;entryY=0.075;entryDx=0;entryDy=0;entryPerimeter=0;" parent="1" source="ne0dGpzM1XJQtN-Q94vP-84" target="ne0dGpzM1XJQtN-Q94vP-82" edge="1">
          <mxGeometry relative="1" as="geometry" />
        </mxCell>
        <mxCell id="ne0dGpzM1XJQtN-Q94vP-123" style="edgeStyle=orthogonalEdgeStyle;rounded=0;orthogonalLoop=1;jettySize=auto;html=1;exitX=0.5;exitY=1;exitDx=0;exitDy=0;entryX=0.5;entryY=0;entryDx=0;entryDy=0;" parent="1" source="ne0dGpzM1XJQtN-Q94vP-117" target="ne0dGpzM1XJQtN-Q94vP-121" edge="1">
          <mxGeometry relative="1" as="geometry">
            <Array as="points">
              <mxPoint x="535" y="1140" />
              <mxPoint x="615" y="1140" />
            </Array>
          </mxGeometry>
        </mxCell>
        <mxCell id="ne0dGpzM1XJQtN-Q94vP-127" style="edgeStyle=orthogonalEdgeStyle;rounded=0;orthogonalLoop=1;jettySize=auto;html=1;exitX=0;exitY=0.5;exitDx=0;exitDy=0;entryX=0.5;entryY=0;entryDx=0;entryDy=0;" parent="1" source="ne0dGpzM1XJQtN-Q94vP-117" target="ne0dGpzM1XJQtN-Q94vP-122" edge="1">
          <mxGeometry relative="1" as="geometry" />
        </mxCell>
        <mxCell id="ne0dGpzM1XJQtN-Q94vP-117" value="eljut a kerítésig" style="rounded=0;whiteSpace=wrap;html=1;" parent="1" vertex="1">
          <mxGeometry x="500" y="1080" width="70" height="40" as="geometry" />
        </mxCell>
        <mxCell id="ne0dGpzM1XJQtN-Q94vP-118" value="Vége" style="rounded=0;whiteSpace=wrap;html=1;" parent="1" vertex="1">
          <mxGeometry x="354" y="1070" width="70" height="45" as="geometry" />
        </mxCell>
        <mxCell id="ne0dGpzM1XJQtN-Q94vP-131" style="edgeStyle=orthogonalEdgeStyle;rounded=0;orthogonalLoop=1;jettySize=auto;html=1;exitX=0.5;exitY=1;exitDx=0;exitDy=0;" parent="1" source="ne0dGpzM1XJQtN-Q94vP-121" target="ne0dGpzM1XJQtN-Q94vP-128" edge="1">
          <mxGeometry relative="1" as="geometry" />
        </mxCell>
        <mxCell id="ne0dGpzM1XJQtN-Q94vP-121" value="átvágás" style="rounded=0;whiteSpace=wrap;html=1;" parent="1" vertex="1">
          <mxGeometry x="580" y="1150" width="70" height="40" as="geometry" />
        </mxCell>
        <mxCell id="ne0dGpzM1XJQtN-Q94vP-130" style="edgeStyle=orthogonalEdgeStyle;rounded=0;orthogonalLoop=1;jettySize=auto;html=1;exitX=0.5;exitY=1;exitDx=0;exitDy=0;" parent="1" source="ne0dGpzM1XJQtN-Q94vP-122" target="ne0dGpzM1XJQtN-Q94vP-129" edge="1">
          <mxGeometry relative="1" as="geometry" />
        </mxCell>
        <mxCell id="ne0dGpzM1XJQtN-Q94vP-122" value="átmászás" style="rounded=0;whiteSpace=wrap;html=1;" parent="1" vertex="1">
          <mxGeometry x="444" y="1150" width="70" height="40" as="geometry" />
        </mxCell>
        <mxCell id="ne0dGpzM1XJQtN-Q94vP-128" value="Kijutottál" style="rounded=0;whiteSpace=wrap;html=1;" parent="1" vertex="1">
          <mxGeometry x="600" y="1240" width="70" height="40" as="geometry" />
        </mxCell>
        <mxCell id="ne0dGpzM1XJQtN-Q94vP-129" value="Vége" style="rounded=0;whiteSpace=wrap;html=1;" parent="1" vertex="1">
          <mxGeometry x="370" y="1240" width="70" height="40" as="geometry" />
        </mxCell>
        <mxCell id="KMo8AS0ZJu5sJgMPSJ-H-26" style="edgeStyle=orthogonalEdgeStyle;rounded=0;orthogonalLoop=1;jettySize=auto;html=1;exitX=1;exitY=1;exitDx=0;exitDy=0;entryX=0.5;entryY=0;entryDx=0;entryDy=0;" parent="1" source="RZV11Bh1NO4c7f-Brt2T-1" target="RZV11Bh1NO4c7f-Brt2T-17" edge="1">
          <mxGeometry relative="1" as="geometry" />
        </mxCell>
        <mxCell id="KMo8AS0ZJu5sJgMPSJ-H-27" style="edgeStyle=orthogonalEdgeStyle;rounded=0;orthogonalLoop=1;jettySize=auto;html=1;exitX=0;exitY=1;exitDx=0;exitDy=0;entryX=0.5;entryY=0;entryDx=0;entryDy=0;" parent="1" source="RZV11Bh1NO4c7f-Brt2T-1" target="RZV11Bh1NO4c7f-Brt2T-32" edge="1">
          <mxGeometry relative="1" as="geometry" />
        </mxCell>
        <mxCell id="RZV11Bh1NO4c7f-Brt2T-1" value="Ásó lopása raktárból" style="rounded=0;whiteSpace=wrap;html=1;" parent="1" vertex="1">
          <mxGeometry x="920" y="160" width="80" height="40" as="geometry" />
        </mxCell>
        <mxCell id="KMo8AS0ZJu5sJgMPSJ-H-28" style="edgeStyle=orthogonalEdgeStyle;rounded=0;orthogonalLoop=1;jettySize=auto;html=1;exitX=0;exitY=1;exitDx=0;exitDy=0;entryX=0.5;entryY=0;entryDx=0;entryDy=0;" parent="1" source="RZV11Bh1NO4c7f-Brt2T-4" target="RZV11Bh1NO4c7f-Brt2T-34" edge="1">
          <mxGeometry relative="1" as="geometry" />
        </mxCell>
        <mxCell id="KMo8AS0ZJu5sJgMPSJ-H-29" style="edgeStyle=orthogonalEdgeStyle;rounded=0;orthogonalLoop=1;jettySize=auto;html=1;exitX=1;exitY=1;exitDx=0;exitDy=0;entryX=0.5;entryY=0;entryDx=0;entryDy=0;" parent="1" source="RZV11Bh1NO4c7f-Brt2T-4" target="RZV11Bh1NO4c7f-Brt2T-31" edge="1">
          <mxGeometry relative="1" as="geometry" />
        </mxCell>
        <mxCell id="RZV11Bh1NO4c7f-Brt2T-4" value="Kézi ásó készítése" style="rounded=0;whiteSpace=wrap;html=1;" parent="1" vertex="1">
          <mxGeometry x="1270" y="160" width="80" height="40" as="geometry" />
        </mxCell>
        <mxCell id="RZV11Bh1NO4c7f-Brt2T-17" value="Éjszaka menni" style="rounded=0;whiteSpace=wrap;html=1;" parent="1" vertex="1">
          <mxGeometry x="960" y="240" width="60" height="40" as="geometry" />
        </mxCell>
        <mxCell id="KMo8AS0ZJu5sJgMPSJ-H-77" style="edgeStyle=orthogonalEdgeStyle;rounded=0;orthogonalLoop=1;jettySize=auto;html=1;exitX=1;exitY=0.5;exitDx=0;exitDy=0;entryX=0.5;entryY=0;entryDx=0;entryDy=0;" parent="1" source="RZV11Bh1NO4c7f-Brt2T-31" target="RZV11Bh1NO4c7f-Brt2T-67" edge="1">
          <mxGeometry relative="1" as="geometry" />
        </mxCell>
        <mxCell id="RZV11Bh1NO4c7f-Brt2T-31" value="Nappal menni" style="rounded=0;whiteSpace=wrap;html=1;" parent="1" vertex="1">
          <mxGeometry x="1310" y="240" width="60" height="40" as="geometry" />
        </mxCell>
        <mxCell id="RZV11Bh1NO4c7f-Brt2T-32" value="Nappal menni" style="rounded=0;whiteSpace=wrap;html=1;" parent="1" vertex="1">
          <mxGeometry x="900" y="240" width="60" height="40" as="geometry" />
        </mxCell>
        <mxCell id="KMo8AS0ZJu5sJgMPSJ-H-81" style="edgeStyle=orthogonalEdgeStyle;rounded=0;orthogonalLoop=1;jettySize=auto;html=1;exitX=0.75;exitY=1;exitDx=0;exitDy=0;entryX=0.25;entryY=0;entryDx=0;entryDy=0;" parent="1" source="RZV11Bh1NO4c7f-Brt2T-34" target="RZV11Bh1NO4c7f-Brt2T-67" edge="1">
          <mxGeometry relative="1" as="geometry" />
        </mxCell>
        <mxCell id="RZV11Bh1NO4c7f-Brt2T-34" value="Éjszaka menni" style="rounded=0;whiteSpace=wrap;html=1;" parent="1" vertex="1">
          <mxGeometry x="1250" y="240" width="60" height="40" as="geometry" />
        </mxCell>
        <mxCell id="KMo8AS0ZJu5sJgMPSJ-H-41" style="edgeStyle=orthogonalEdgeStyle;rounded=0;orthogonalLoop=1;jettySize=auto;html=1;exitX=0.25;exitY=1;exitDx=0;exitDy=0;entryX=0.5;entryY=0;entryDx=0;entryDy=0;" parent="1" source="RZV11Bh1NO4c7f-Brt2T-46" target="RZV11Bh1NO4c7f-Brt2T-50" edge="1">
          <mxGeometry relative="1" as="geometry" />
        </mxCell>
        <mxCell id="KMo8AS0ZJu5sJgMPSJ-H-42" style="edgeStyle=orthogonalEdgeStyle;rounded=0;orthogonalLoop=1;jettySize=auto;html=1;exitX=0.75;exitY=1;exitDx=0;exitDy=0;entryX=0.5;entryY=0;entryDx=0;entryDy=0;" parent="1" source="RZV11Bh1NO4c7f-Brt2T-46" target="RZV11Bh1NO4c7f-Brt2T-49" edge="1">
          <mxGeometry relative="1" as="geometry" />
        </mxCell>
        <mxCell id="RZV11Bh1NO4c7f-Brt2T-46" value="Túl sok őr, visszafordulsz?" style="rounded=0;whiteSpace=wrap;html=1;" parent="1" vertex="1">
          <mxGeometry x="960" y="321.45" width="80" height="40" as="geometry" />
        </mxCell>
        <mxCell id="RZV11Bh1NO4c7f-Brt2T-49" value="nem - LOSE" style="rounded=0;whiteSpace=wrap;html=1;" parent="1" vertex="1">
          <mxGeometry x="1000" y="400" width="40" height="40" as="geometry" />
        </mxCell>
        <mxCell id="KMo8AS0ZJu5sJgMPSJ-H-44" style="edgeStyle=orthogonalEdgeStyle;rounded=0;orthogonalLoop=1;jettySize=auto;html=1;exitX=0;exitY=0.5;exitDx=0;exitDy=0;entryX=0;entryY=0.5;entryDx=0;entryDy=0;" parent="1" source="RZV11Bh1NO4c7f-Brt2T-50" target="RZV11Bh1NO4c7f-Brt2T-1" edge="1">
          <mxGeometry relative="1" as="geometry">
            <Array as="points">
              <mxPoint x="830" y="420" />
              <mxPoint x="830" y="180" />
            </Array>
          </mxGeometry>
        </mxCell>
        <mxCell id="RZV11Bh1NO4c7f-Brt2T-50" value="IGEN" style="rounded=0;whiteSpace=wrap;html=1;" parent="1" vertex="1">
          <mxGeometry x="960" y="400" width="40" height="40" as="geometry" />
        </mxCell>
        <mxCell id="KMo8AS0ZJu5sJgMPSJ-H-53" style="edgeStyle=orthogonalEdgeStyle;rounded=0;orthogonalLoop=1;jettySize=auto;html=1;exitX=0.75;exitY=1;exitDx=0;exitDy=0;entryX=0.25;entryY=0;entryDx=0;entryDy=0;" parent="1" source="RZV11Bh1NO4c7f-Brt2T-53" target="KMo8AS0ZJu5sJgMPSJ-H-49" edge="1">
          <mxGeometry relative="1" as="geometry" />
        </mxCell>
        <mxCell id="KMo8AS0ZJu5sJgMPSJ-H-54" style="edgeStyle=orthogonalEdgeStyle;rounded=0;orthogonalLoop=1;jettySize=auto;html=1;exitX=0.25;exitY=1;exitDx=0;exitDy=0;entryX=0.75;entryY=0;entryDx=0;entryDy=0;" parent="1" source="RZV11Bh1NO4c7f-Brt2T-53" target="KMo8AS0ZJu5sJgMPSJ-H-48" edge="1">
          <mxGeometry relative="1" as="geometry" />
        </mxCell>
        <mxCell id="RZV11Bh1NO4c7f-Brt2T-53" value="elmondod bárkinek is?" style="rounded=0;whiteSpace=wrap;html=1;" parent="1" vertex="1">
          <mxGeometry x="895" y="480" width="90" height="40" as="geometry" />
        </mxCell>
        <mxCell id="RZV11Bh1NO4c7f-Brt2T-58" value="LOSE" style="rounded=0;whiteSpace=wrap;html=1;" parent="1" vertex="1">
          <mxGeometry x="827" y="640" width="53" height="40" as="geometry" />
        </mxCell>
        <mxCell id="RZV11Bh1NO4c7f-Brt2T-59" value="megvan" style="rounded=0;whiteSpace=wrap;html=1;" parent="1" vertex="1">
          <mxGeometry x="950" y="640" width="80" height="40" as="geometry" />
        </mxCell>
        <mxCell id="RZV11Bh1NO4c7f-Brt2T-66" value="Találsz egy vödröt, benne szöget" style="rounded=0;whiteSpace=wrap;html=1;" parent="1" vertex="1">
          <mxGeometry x="1230" y="318.55000000000007" width="80" height="41.45" as="geometry" />
        </mxCell>
        <mxCell id="KMo8AS0ZJu5sJgMPSJ-H-69" style="edgeStyle=orthogonalEdgeStyle;rounded=0;orthogonalLoop=1;jettySize=auto;html=1;exitX=0.75;exitY=1;exitDx=0;exitDy=0;" parent="1" source="RZV11Bh1NO4c7f-Brt2T-67" target="RZV11Bh1NO4c7f-Brt2T-75" edge="1">
          <mxGeometry relative="1" as="geometry" />
        </mxCell>
        <mxCell id="KMo8AS0ZJu5sJgMPSJ-H-70" style="edgeStyle=orthogonalEdgeStyle;rounded=0;orthogonalLoop=1;jettySize=auto;html=1;exitX=0.25;exitY=1;exitDx=0;exitDy=0;entryX=0.5;entryY=0;entryDx=0;entryDy=0;" parent="1" source="RZV11Bh1NO4c7f-Brt2T-67" edge="1">
          <mxGeometry relative="1" as="geometry">
            <mxPoint x="1395" y="393.55" as="targetPoint" />
          </mxGeometry>
        </mxCell>
        <mxCell id="RZV11Bh1NO4c7f-Brt2T-67" value="Megkérdőjelez egy őr" style="rounded=0;whiteSpace=wrap;html=1;" parent="1" vertex="1">
          <mxGeometry x="1390" y="320" width="80" height="40" as="geometry" />
        </mxCell>
        <mxCell id="KMo8AS0ZJu5sJgMPSJ-H-79" style="edgeStyle=orthogonalEdgeStyle;rounded=0;orthogonalLoop=1;jettySize=auto;html=1;exitX=0.5;exitY=1;exitDx=0;exitDy=0;entryX=0.5;entryY=0;entryDx=0;entryDy=0;" parent="1" source="RZV11Bh1NO4c7f-Brt2T-74" target="RZV11Bh1NO4c7f-Brt2T-78" edge="1">
          <mxGeometry relative="1" as="geometry" />
        </mxCell>
        <mxCell id="RZV11Bh1NO4c7f-Brt2T-74" value="Visszarakod" style="rounded=0;whiteSpace=wrap;html=1;" parent="1" vertex="1">
          <mxGeometry x="1360" y="393.55" width="70" height="40" as="geometry" />
        </mxCell>
        <mxCell id="KMo8AS0ZJu5sJgMPSJ-H-93" style="edgeStyle=orthogonalEdgeStyle;rounded=0;orthogonalLoop=1;jettySize=auto;html=1;exitX=1;exitY=0.5;exitDx=0;exitDy=0;" parent="1" source="RZV11Bh1NO4c7f-Brt2T-75" target="KMo8AS0ZJu5sJgMPSJ-H-94" edge="1">
          <mxGeometry relative="1" as="geometry">
            <mxPoint x="1550" y="513.55" as="targetPoint" />
            <Array as="points">
              <mxPoint x="1550" y="414" />
              <mxPoint x="1550" y="700" />
            </Array>
          </mxGeometry>
        </mxCell>
        <mxCell id="RZV11Bh1NO4c7f-Brt2T-75" value="Letagadod" style="rounded=0;whiteSpace=wrap;html=1;" parent="1" vertex="1">
          <mxGeometry x="1430" y="393.55" width="80" height="40" as="geometry" />
        </mxCell>
        <mxCell id="KMo8AS0ZJu5sJgMPSJ-H-103" style="edgeStyle=orthogonalEdgeStyle;rounded=0;orthogonalLoop=1;jettySize=auto;html=1;exitX=0.75;exitY=1;exitDx=0;exitDy=0;" parent="1" source="RZV11Bh1NO4c7f-Brt2T-78" target="KMo8AS0ZJu5sJgMPSJ-H-104" edge="1">
          <mxGeometry relative="1" as="geometry">
            <mxPoint x="1470" y="560" as="targetPoint" />
          </mxGeometry>
        </mxCell>
        <mxCell id="RZV11Bh1NO4c7f-Brt2T-78" value="Pár perc múlva újra?" style="rounded=0;whiteSpace=wrap;html=1;" parent="1" vertex="1">
          <mxGeometry x="1390" y="473.55" width="80" height="40" as="geometry" />
        </mxCell>
        <mxCell id="KMo8AS0ZJu5sJgMPSJ-H-135" style="edgeStyle=orthogonalEdgeStyle;rounded=0;orthogonalLoop=1;jettySize=auto;html=1;exitX=0;exitY=0.5;exitDx=0;exitDy=0;entryX=0;entryY=0.5;entryDx=0;entryDy=0;" parent="1" source="RZV11Bh1NO4c7f-Brt2T-87" target="RZV11Bh1NO4c7f-Brt2T-4" edge="1">
          <mxGeometry relative="1" as="geometry">
            <Array as="points">
              <mxPoint x="1200" y="570" />
              <mxPoint x="1200" y="180" />
            </Array>
          </mxGeometry>
        </mxCell>
        <mxCell id="RZV11Bh1NO4c7f-Brt2T-87" value="Majd máskor" style="rounded=0;whiteSpace=wrap;html=1;" parent="1" vertex="1">
          <mxGeometry x="1380" y="550" width="70" height="40" as="geometry" />
        </mxCell>
        <mxCell id="KMo8AS0ZJu5sJgMPSJ-H-61" style="edgeStyle=orthogonalEdgeStyle;rounded=0;orthogonalLoop=1;jettySize=auto;html=1;exitX=0.5;exitY=1;exitDx=0;exitDy=0;entryX=0.5;entryY=0;entryDx=0;entryDy=0;" parent="1" source="RZV11Bh1NO4c7f-Brt2T-123" target="RZV11Bh1NO4c7f-Brt2T-127" edge="1">
          <mxGeometry relative="1" as="geometry" />
        </mxCell>
        <mxCell id="KMo8AS0ZJu5sJgMPSJ-H-62" style="edgeStyle=orthogonalEdgeStyle;rounded=0;orthogonalLoop=1;jettySize=auto;html=1;exitX=0.75;exitY=1;exitDx=0;exitDy=0;" parent="1" source="RZV11Bh1NO4c7f-Brt2T-123" target="RZV11Bh1NO4c7f-Brt2T-130" edge="1">
          <mxGeometry relative="1" as="geometry">
            <Array as="points">
              <mxPoint x="925" y="700" />
              <mxPoint x="930" y="700" />
            </Array>
          </mxGeometry>
        </mxCell>
        <mxCell id="RZV11Bh1NO4c7f-Brt2T-123" value="Segíthetek?" style="rounded=0;whiteSpace=wrap;html=1;" parent="1" vertex="1">
          <mxGeometry x="880" y="640" width="60" height="40" as="geometry" />
        </mxCell>
        <mxCell id="KMo8AS0ZJu5sJgMPSJ-H-65" style="edgeStyle=orthogonalEdgeStyle;rounded=0;orthogonalLoop=1;jettySize=auto;html=1;exitX=0.5;exitY=1;exitDx=0;exitDy=0;entryX=0;entryY=0.5;entryDx=0;entryDy=0;" parent="1" source="RZV11Bh1NO4c7f-Brt2T-127" target="KMo8AS0ZJu5sJgMPSJ-H-63" edge="1">
          <mxGeometry relative="1" as="geometry">
            <Array as="points">
              <mxPoint x="830" y="760" />
              <mxPoint x="830" y="820" />
            </Array>
          </mxGeometry>
        </mxCell>
        <mxCell id="RZV11Bh1NO4c7f-Brt2T-127" value="Igen" style="rounded=0;whiteSpace=wrap;html=1;" parent="1" vertex="1">
          <mxGeometry x="800" y="720" width="80" height="40" as="geometry" />
        </mxCell>
        <mxCell id="KMo8AS0ZJu5sJgMPSJ-H-64" style="edgeStyle=orthogonalEdgeStyle;rounded=0;orthogonalLoop=1;jettySize=auto;html=1;exitX=1;exitY=0.5;exitDx=0;exitDy=0;entryX=1;entryY=1;entryDx=0;entryDy=0;" parent="1" source="RZV11Bh1NO4c7f-Brt2T-130" target="KMo8AS0ZJu5sJgMPSJ-H-9" edge="1">
          <mxGeometry relative="1" as="geometry">
            <Array as="points">
              <mxPoint x="1060" y="739" />
              <mxPoint x="1060" y="120" />
            </Array>
          </mxGeometry>
        </mxCell>
        <mxCell id="RZV11Bh1NO4c7f-Brt2T-130" value="Nem - eltöri álmodban" style="rounded=0;whiteSpace=wrap;html=1;" parent="1" vertex="1">
          <mxGeometry x="880" y="720" width="80" height="40" as="geometry" />
        </mxCell>
        <mxCell id="KMo8AS0ZJu5sJgMPSJ-H-6" value="" style="endArrow=none;html=1;rounded=0;fillColor=#f8cecc;strokeColor=#b85450;strokeWidth=7;" parent="1" edge="1">
          <mxGeometry width="50" height="50" relative="1" as="geometry">
            <mxPoint x="780" y="1381.45" as="sourcePoint" />
            <mxPoint x="770" y="-428.55" as="targetPoint" />
          </mxGeometry>
        </mxCell>
        <mxCell id="KMo8AS0ZJu5sJgMPSJ-H-7" value="" style="endArrow=none;html=1;rounded=0;fillColor=#f8cecc;strokeColor=#b85450;strokeWidth=7;" parent="1" edge="1">
          <mxGeometry width="50" height="50" relative="1" as="geometry">
            <mxPoint x="340" y="1386.45" as="sourcePoint" />
            <mxPoint x="330" y="-423.55" as="targetPoint" />
          </mxGeometry>
        </mxCell>
        <mxCell id="KMo8AS0ZJu5sJgMPSJ-H-13" style="edgeStyle=orthogonalEdgeStyle;rounded=0;orthogonalLoop=1;jettySize=auto;html=1;exitX=1;exitY=0.5;exitDx=0;exitDy=0;entryX=0.5;entryY=0;entryDx=0;entryDy=0;" parent="1" source="KMo8AS0ZJu5sJgMPSJ-H-9" target="RZV11Bh1NO4c7f-Brt2T-4" edge="1">
          <mxGeometry relative="1" as="geometry" />
        </mxCell>
        <mxCell id="KMo8AS0ZJu5sJgMPSJ-H-14" style="edgeStyle=orthogonalEdgeStyle;rounded=0;orthogonalLoop=1;jettySize=auto;html=1;exitX=0.5;exitY=1;exitDx=0;exitDy=0;entryX=0.25;entryY=0;entryDx=0;entryDy=0;" parent="1" source="KMo8AS0ZJu5sJgMPSJ-H-9" target="RZV11Bh1NO4c7f-Brt2T-1" edge="1">
          <mxGeometry relative="1" as="geometry" />
        </mxCell>
        <mxCell id="KMo8AS0ZJu5sJgMPSJ-H-9" value="KIÁSÁS" style="whiteSpace=wrap;html=1;aspect=fixed;strokeColor=#CCFF99;fillColor=#B9E0A5;" parent="1" vertex="1">
          <mxGeometry x="920" y="80" width="40" height="40" as="geometry" />
        </mxCell>
        <mxCell id="KMo8AS0ZJu5sJgMPSJ-H-36" style="edgeStyle=orthogonalEdgeStyle;rounded=0;orthogonalLoop=1;jettySize=auto;html=1;exitX=0.5;exitY=1;exitDx=0;exitDy=0;entryX=0.371;entryY=0.032;entryDx=0;entryDy=0;entryPerimeter=0;" parent="1" source="RZV11Bh1NO4c7f-Brt2T-17" target="RZV11Bh1NO4c7f-Brt2T-46" edge="1">
          <mxGeometry relative="1" as="geometry" />
        </mxCell>
        <mxCell id="KMo8AS0ZJu5sJgMPSJ-H-58" style="edgeStyle=orthogonalEdgeStyle;rounded=0;orthogonalLoop=1;jettySize=auto;html=1;exitX=0;exitY=0.5;exitDx=0;exitDy=0;entryX=0.5;entryY=0;entryDx=0;entryDy=0;" parent="1" source="KMo8AS0ZJu5sJgMPSJ-H-48" target="RZV11Bh1NO4c7f-Brt2T-58" edge="1">
          <mxGeometry relative="1" as="geometry" />
        </mxCell>
        <mxCell id="KMo8AS0ZJu5sJgMPSJ-H-48" value="IGEN" style="rounded=0;whiteSpace=wrap;html=1;" parent="1" vertex="1">
          <mxGeometry x="895" y="560" width="40" height="40" as="geometry" />
        </mxCell>
        <mxCell id="KMo8AS0ZJu5sJgMPSJ-H-49" value="NEM" style="rounded=0;whiteSpace=wrap;html=1;" parent="1" vertex="1">
          <mxGeometry x="945" y="560" width="40" height="40" as="geometry" />
        </mxCell>
        <mxCell id="KMo8AS0ZJu5sJgMPSJ-H-50" style="edgeStyle=orthogonalEdgeStyle;rounded=0;orthogonalLoop=1;jettySize=auto;html=1;exitX=0.5;exitY=1;exitDx=0;exitDy=0;" parent="1" source="RZV11Bh1NO4c7f-Brt2T-32" edge="1">
          <mxGeometry relative="1" as="geometry">
            <mxPoint x="930" y="480" as="targetPoint" />
          </mxGeometry>
        </mxCell>
        <mxCell id="KMo8AS0ZJu5sJgMPSJ-H-56" style="edgeStyle=orthogonalEdgeStyle;rounded=0;orthogonalLoop=1;jettySize=auto;html=1;exitX=0.5;exitY=1;exitDx=0;exitDy=0;entryX=0.183;entryY=0.042;entryDx=0;entryDy=0;entryPerimeter=0;" parent="1" source="KMo8AS0ZJu5sJgMPSJ-H-49" target="RZV11Bh1NO4c7f-Brt2T-59" edge="1">
          <mxGeometry relative="1" as="geometry" />
        </mxCell>
        <mxCell id="KMo8AS0ZJu5sJgMPSJ-H-59" style="edgeStyle=orthogonalEdgeStyle;rounded=0;orthogonalLoop=1;jettySize=auto;html=1;exitX=0.5;exitY=1;exitDx=0;exitDy=0;entryX=0.592;entryY=0.021;entryDx=0;entryDy=0;entryPerimeter=0;" parent="1" source="KMo8AS0ZJu5sJgMPSJ-H-48" target="RZV11Bh1NO4c7f-Brt2T-123" edge="1">
          <mxGeometry relative="1" as="geometry" />
        </mxCell>
        <mxCell id="KMo8AS0ZJu5sJgMPSJ-H-60" value="50 - 50" style="rounded=0;whiteSpace=wrap;html=1;" parent="1" vertex="1">
          <mxGeometry x="860" y="606.45" width="50" height="20" as="geometry" />
        </mxCell>
        <mxCell id="KMo8AS0ZJu5sJgMPSJ-H-63" value="KINT VAGY" style="rounded=0;whiteSpace=wrap;html=1;" parent="1" vertex="1">
          <mxGeometry x="850" y="800" width="60" height="40" as="geometry" />
        </mxCell>
        <mxCell id="KMo8AS0ZJu5sJgMPSJ-H-80" style="edgeStyle=orthogonalEdgeStyle;rounded=0;orthogonalLoop=1;jettySize=auto;html=1;exitX=0.5;exitY=1;exitDx=0;exitDy=0;entryX=0.622;entryY=-0.018;entryDx=0;entryDy=0;entryPerimeter=0;" parent="1" source="RZV11Bh1NO4c7f-Brt2T-34" target="RZV11Bh1NO4c7f-Brt2T-66" edge="1">
          <mxGeometry relative="1" as="geometry" />
        </mxCell>
        <mxCell id="KMo8AS0ZJu5sJgMPSJ-H-82" value="50 - 50" style="rounded=0;whiteSpace=wrap;html=1;" parent="1" vertex="1">
          <mxGeometry x="1320" y="307.82" width="40" height="10.73" as="geometry" />
        </mxCell>
        <mxCell id="KMo8AS0ZJu5sJgMPSJ-H-88" style="edgeStyle=orthogonalEdgeStyle;rounded=0;orthogonalLoop=1;jettySize=auto;html=1;exitX=0.25;exitY=1;exitDx=0;exitDy=0;" parent="1" source="KMo8AS0ZJu5sJgMPSJ-H-84" target="KMo8AS0ZJu5sJgMPSJ-H-86" edge="1">
          <mxGeometry relative="1" as="geometry" />
        </mxCell>
        <mxCell id="KMo8AS0ZJu5sJgMPSJ-H-89" style="edgeStyle=orthogonalEdgeStyle;rounded=0;orthogonalLoop=1;jettySize=auto;html=1;exitX=0.75;exitY=1;exitDx=0;exitDy=0;entryX=0.25;entryY=0;entryDx=0;entryDy=0;" parent="1" source="KMo8AS0ZJu5sJgMPSJ-H-84" target="KMo8AS0ZJu5sJgMPSJ-H-85" edge="1">
          <mxGeometry relative="1" as="geometry" />
        </mxCell>
        <mxCell id="KMo8AS0ZJu5sJgMPSJ-H-84" value="Elmész keresni nyelet is?" style="rounded=0;whiteSpace=wrap;html=1;" parent="1" vertex="1">
          <mxGeometry x="1230" y="360" width="80" height="50" as="geometry" />
        </mxCell>
        <mxCell id="KMo8AS0ZJu5sJgMPSJ-H-116" style="edgeStyle=orthogonalEdgeStyle;rounded=0;orthogonalLoop=1;jettySize=auto;html=1;exitX=0.5;exitY=1;exitDx=0;exitDy=0;entryX=0.5;entryY=0;entryDx=0;entryDy=0;" parent="1" source="KMo8AS0ZJu5sJgMPSJ-H-85" target="KMo8AS0ZJu5sJgMPSJ-H-113" edge="1">
          <mxGeometry relative="1" as="geometry" />
        </mxCell>
        <mxCell id="KMo8AS0ZJu5sJgMPSJ-H-85" value="Nem" style="rounded=0;whiteSpace=wrap;html=1;" parent="1" vertex="1">
          <mxGeometry x="1290" y="460" width="60" height="20" as="geometry" />
        </mxCell>
        <mxCell id="KMo8AS0ZJu5sJgMPSJ-H-90" style="edgeStyle=orthogonalEdgeStyle;rounded=0;orthogonalLoop=1;jettySize=auto;html=1;exitX=0.5;exitY=1;exitDx=0;exitDy=0;" parent="1" source="KMo8AS0ZJu5sJgMPSJ-H-86" target="KMo8AS0ZJu5sJgMPSJ-H-91" edge="1">
          <mxGeometry relative="1" as="geometry">
            <mxPoint x="1259.7368421052633" y="493.55" as="targetPoint" />
            <Array as="points">
              <mxPoint x="1260" y="503.55" />
              <mxPoint x="1260" y="503.55" />
            </Array>
          </mxGeometry>
        </mxCell>
        <mxCell id="KMo8AS0ZJu5sJgMPSJ-H-86" value="Igen " style="rounded=0;whiteSpace=wrap;html=1;" parent="1" vertex="1">
          <mxGeometry x="1230" y="460" width="60" height="20" as="geometry" />
        </mxCell>
        <mxCell id="KMo8AS0ZJu5sJgMPSJ-H-91" value="Elkapnak - LOSE" style="rounded=0;whiteSpace=wrap;html=1;" parent="1" vertex="1">
          <mxGeometry x="1230" y="513.55" width="60" height="40" as="geometry" />
        </mxCell>
        <mxCell id="KMo8AS0ZJu5sJgMPSJ-H-131" style="edgeStyle=orthogonalEdgeStyle;rounded=0;orthogonalLoop=1;jettySize=auto;html=1;exitX=0.5;exitY=1;exitDx=0;exitDy=0;entryX=0.5;entryY=0;entryDx=0;entryDy=0;" parent="1" source="KMo8AS0ZJu5sJgMPSJ-H-94" target="KMo8AS0ZJu5sJgMPSJ-H-130" edge="1">
          <mxGeometry relative="1" as="geometry" />
        </mxCell>
        <mxCell id="KMo8AS0ZJu5sJgMPSJ-H-132" style="edgeStyle=orthogonalEdgeStyle;rounded=0;orthogonalLoop=1;jettySize=auto;html=1;exitX=1;exitY=1;exitDx=0;exitDy=0;" parent="1" source="KMo8AS0ZJu5sJgMPSJ-H-94" edge="1">
          <mxGeometry relative="1" as="geometry">
            <mxPoint x="1610" y="760" as="targetPoint" />
            <Array as="points">
              <mxPoint x="1560" y="720" />
              <mxPoint x="1560" y="740" />
              <mxPoint x="1610" y="740" />
            </Array>
          </mxGeometry>
        </mxCell>
        <mxCell id="KMo8AS0ZJu5sJgMPSJ-H-94" value="Megvan a nyél" style="rounded=0;whiteSpace=wrap;html=1;" parent="1" vertex="1">
          <mxGeometry x="1480" y="680" width="60" height="40" as="geometry" />
        </mxCell>
        <mxCell id="KMo8AS0ZJu5sJgMPSJ-H-102" style="edgeStyle=orthogonalEdgeStyle;rounded=0;orthogonalLoop=1;jettySize=auto;html=1;exitX=0.25;exitY=1;exitDx=0;exitDy=0;entryX=0.412;entryY=0;entryDx=0;entryDy=0;entryPerimeter=0;" parent="1" source="RZV11Bh1NO4c7f-Brt2T-78" target="RZV11Bh1NO4c7f-Brt2T-87" edge="1">
          <mxGeometry relative="1" as="geometry" />
        </mxCell>
        <mxCell id="KMo8AS0ZJu5sJgMPSJ-H-104" value="Igen, hajrá" style="rounded=0;whiteSpace=wrap;html=1;" parent="1" vertex="1">
          <mxGeometry x="1450" y="550" width="70" height="40" as="geometry" />
        </mxCell>
        <mxCell id="KMo8AS0ZJu5sJgMPSJ-H-107" value="50 - 50" style="rounded=0;whiteSpace=wrap;html=1;" parent="1" vertex="1">
          <mxGeometry x="1490" y="596.45" width="45.33" height="10" as="geometry" />
        </mxCell>
        <mxCell id="KMo8AS0ZJu5sJgMPSJ-H-110" style="edgeStyle=orthogonalEdgeStyle;rounded=0;orthogonalLoop=1;jettySize=auto;html=1;exitX=0;exitY=0.5;exitDx=0;exitDy=0;entryX=0.5;entryY=1;entryDx=0;entryDy=0;" parent="1" source="KMo8AS0ZJu5sJgMPSJ-H-109" target="KMo8AS0ZJu5sJgMPSJ-H-91" edge="1">
          <mxGeometry relative="1" as="geometry" />
        </mxCell>
        <mxCell id="KMo8AS0ZJu5sJgMPSJ-H-109" value="2x már nem hisz neked" style="rounded=0;whiteSpace=wrap;html=1;" parent="1" vertex="1">
          <mxGeometry x="1440" y="615" width="67.17" height="25" as="geometry" />
        </mxCell>
        <mxCell id="KMo8AS0ZJu5sJgMPSJ-H-111" style="edgeStyle=orthogonalEdgeStyle;rounded=0;orthogonalLoop=1;jettySize=auto;html=1;exitX=0.25;exitY=1;exitDx=0;exitDy=0;entryX=0.392;entryY=0.067;entryDx=0;entryDy=0;entryPerimeter=0;" parent="1" source="KMo8AS0ZJu5sJgMPSJ-H-104" target="KMo8AS0ZJu5sJgMPSJ-H-109" edge="1">
          <mxGeometry relative="1" as="geometry" />
        </mxCell>
        <mxCell id="KMo8AS0ZJu5sJgMPSJ-H-119" style="edgeStyle=orthogonalEdgeStyle;rounded=0;orthogonalLoop=1;jettySize=auto;html=1;exitX=0.25;exitY=1;exitDx=0;exitDy=0;" parent="1" source="KMo8AS0ZJu5sJgMPSJ-H-113" edge="1">
          <mxGeometry relative="1" as="geometry">
            <mxPoint x="1290" y="760" as="targetPoint" />
          </mxGeometry>
        </mxCell>
        <mxCell id="KMo8AS0ZJu5sJgMPSJ-H-120" style="edgeStyle=orthogonalEdgeStyle;rounded=0;orthogonalLoop=1;jettySize=auto;html=1;exitX=0.75;exitY=1;exitDx=0;exitDy=0;" parent="1" source="KMo8AS0ZJu5sJgMPSJ-H-113" edge="1">
          <mxGeometry relative="1" as="geometry">
            <mxPoint x="1350" y="760" as="targetPoint" />
          </mxGeometry>
        </mxCell>
        <mxCell id="KMo8AS0ZJu5sJgMPSJ-H-113" value="Megvan a szög + vödör" style="rounded=0;whiteSpace=wrap;html=1;" parent="1" vertex="1">
          <mxGeometry x="1280" y="680" width="80" height="40" as="geometry" />
        </mxCell>
        <mxCell id="KMo8AS0ZJu5sJgMPSJ-H-114" style="edgeStyle=orthogonalEdgeStyle;rounded=0;orthogonalLoop=1;jettySize=auto;html=1;exitX=0.5;exitY=0;exitDx=0;exitDy=0;entryX=0.575;entryY=0.021;entryDx=0;entryDy=0;entryPerimeter=0;" parent="1" source="KMo8AS0ZJu5sJgMPSJ-H-113" target="KMo8AS0ZJu5sJgMPSJ-H-113" edge="1">
          <mxGeometry relative="1" as="geometry" />
        </mxCell>
        <mxCell id="KMo8AS0ZJu5sJgMPSJ-H-117" style="edgeStyle=orthogonalEdgeStyle;rounded=0;orthogonalLoop=1;jettySize=auto;html=1;exitX=1;exitY=0.5;exitDx=0;exitDy=0;entryX=0.75;entryY=0;entryDx=0;entryDy=0;" parent="1" source="KMo8AS0ZJu5sJgMPSJ-H-104" target="KMo8AS0ZJu5sJgMPSJ-H-94" edge="1">
          <mxGeometry relative="1" as="geometry" />
        </mxCell>
        <mxCell id="KMo8AS0ZJu5sJgMPSJ-H-121" value="Eltöröd egy seprű nyelét" style="rounded=0;whiteSpace=wrap;html=1;" parent="1" vertex="1">
          <mxGeometry x="1260" y="760" width="60" height="40" as="geometry" />
        </mxCell>
        <mxCell id="KMo8AS0ZJu5sJgMPSJ-H-128" style="edgeStyle=orthogonalEdgeStyle;rounded=0;orthogonalLoop=1;jettySize=auto;html=1;exitX=0.5;exitY=1;exitDx=0;exitDy=0;" parent="1" source="KMo8AS0ZJu5sJgMPSJ-H-122" edge="1">
          <mxGeometry relative="1" as="geometry">
            <mxPoint x="1480" y="720" as="targetPoint" />
            <Array as="points">
              <mxPoint x="1350" y="820" />
              <mxPoint x="1480" y="820" />
              <mxPoint x="1480" y="720" />
            </Array>
          </mxGeometry>
        </mxCell>
        <mxCell id="KMo8AS0ZJu5sJgMPSJ-H-122" value="Lopsz a raktárból nyelet" style="rounded=0;whiteSpace=wrap;html=1;" parent="1" vertex="1">
          <mxGeometry x="1320" y="760" width="60" height="40" as="geometry" />
        </mxCell>
        <mxCell id="KMo8AS0ZJu5sJgMPSJ-H-125" style="edgeStyle=orthogonalEdgeStyle;rounded=0;orthogonalLoop=1;jettySize=auto;html=1;exitX=0.5;exitY=1;exitDx=0;exitDy=0;entryX=0.161;entryY=0.995;entryDx=0;entryDy=0;entryPerimeter=0;" parent="1" source="KMo8AS0ZJu5sJgMPSJ-H-121" target="KMo8AS0ZJu5sJgMPSJ-H-91" edge="1">
          <mxGeometry relative="1" as="geometry" />
        </mxCell>
        <mxCell id="KMo8AS0ZJu5sJgMPSJ-H-126" value="Túl hangos, elkapnak" style="rounded=0;whiteSpace=wrap;html=1;" parent="1" vertex="1">
          <mxGeometry x="1190" y="665" width="50" height="55" as="geometry" />
        </mxCell>
        <mxCell id="KMo8AS0ZJu5sJgMPSJ-H-153" style="edgeStyle=orthogonalEdgeStyle;rounded=0;orthogonalLoop=1;jettySize=auto;html=1;exitX=0.5;exitY=1;exitDx=0;exitDy=0;entryX=0.5;entryY=0;entryDx=0;entryDy=0;" parent="1" source="KMo8AS0ZJu5sJgMPSJ-H-130" target="KMo8AS0ZJu5sJgMPSJ-H-149" edge="1">
          <mxGeometry relative="1" as="geometry" />
        </mxCell>
        <mxCell id="KMo8AS0ZJu5sJgMPSJ-H-130" value="Kutatsz a közeledben" style="rounded=0;whiteSpace=wrap;html=1;" parent="1" vertex="1">
          <mxGeometry x="1510" y="760" width="70" height="40" as="geometry" />
        </mxCell>
        <mxCell id="KMo8AS0ZJu5sJgMPSJ-H-136" style="edgeStyle=orthogonalEdgeStyle;rounded=0;orthogonalLoop=1;jettySize=auto;html=1;exitX=0.25;exitY=1;exitDx=0;exitDy=0;" parent="1" source="KMo8AS0ZJu5sJgMPSJ-H-133" edge="1">
          <mxGeometry relative="1" as="geometry">
            <mxPoint x="1594.666666666667" y="850" as="targetPoint" />
          </mxGeometry>
        </mxCell>
        <mxCell id="KMo8AS0ZJu5sJgMPSJ-H-141" style="edgeStyle=orthogonalEdgeStyle;rounded=0;orthogonalLoop=1;jettySize=auto;html=1;exitX=1;exitY=1;exitDx=0;exitDy=0;" parent="1" source="KMo8AS0ZJu5sJgMPSJ-H-133" edge="1">
          <mxGeometry relative="1" as="geometry">
            <mxPoint x="1639.9523809523807" y="850" as="targetPoint" />
          </mxGeometry>
        </mxCell>
        <mxCell id="KMo8AS0ZJu5sJgMPSJ-H-133" value="Elkéred egy társadtól" style="rounded=0;whiteSpace=wrap;html=1;" parent="1" vertex="1">
          <mxGeometry x="1580" y="760" width="60" height="40" as="geometry" />
        </mxCell>
        <mxCell id="KMo8AS0ZJu5sJgMPSJ-H-138" value="50 - 50" style="rounded=0;whiteSpace=wrap;html=1;" parent="1" vertex="1">
          <mxGeometry x="1595.33" y="815" width="44.67" height="10" as="geometry" />
        </mxCell>
        <mxCell id="KMo8AS0ZJu5sJgMPSJ-H-146" style="edgeStyle=orthogonalEdgeStyle;rounded=0;orthogonalLoop=1;jettySize=auto;html=1;exitX=0.5;exitY=1;exitDx=0;exitDy=0;" parent="1" source="KMo8AS0ZJu5sJgMPSJ-H-142" edge="1">
          <mxGeometry relative="1" as="geometry">
            <mxPoint x="1645" y="920" as="targetPoint" />
          </mxGeometry>
        </mxCell>
        <mxCell id="KMo8AS0ZJu5sJgMPSJ-H-142" value="Beköp" style="rounded=0;whiteSpace=wrap;html=1;" parent="1" vertex="1">
          <mxGeometry x="1620" y="850" width="50" height="30" as="geometry" />
        </mxCell>
        <mxCell id="KMo8AS0ZJu5sJgMPSJ-H-148" style="edgeStyle=orthogonalEdgeStyle;rounded=0;orthogonalLoop=1;jettySize=auto;html=1;exitX=0.5;exitY=1;exitDx=0;exitDy=0;" parent="1" source="KMo8AS0ZJu5sJgMPSJ-H-143" target="KMo8AS0ZJu5sJgMPSJ-H-149" edge="1">
          <mxGeometry relative="1" as="geometry">
            <mxPoint x="1460" y="910" as="targetPoint" />
          </mxGeometry>
        </mxCell>
        <mxCell id="KMo8AS0ZJu5sJgMPSJ-H-143" value="Nem köp be" style="rounded=0;whiteSpace=wrap;html=1;" parent="1" vertex="1">
          <mxGeometry x="1565" y="850" width="55" height="30" as="geometry" />
        </mxCell>
        <mxCell id="KMo8AS0ZJu5sJgMPSJ-H-147" value="LOSE" style="rounded=0;whiteSpace=wrap;html=1;" parent="1" vertex="1">
          <mxGeometry x="1610" y="920" width="70" height="30" as="geometry" />
        </mxCell>
        <mxCell id="KMo8AS0ZJu5sJgMPSJ-H-149" value="Megvan mind2 - KINT VAGY" style="rounded=0;whiteSpace=wrap;html=1;" parent="1" vertex="1">
          <mxGeometry x="1390" y="860" width="80" height="40" as="geometry" />
        </mxCell>
        <mxCell id="KMo8AS0ZJu5sJgMPSJ-H-152" value="" style="endArrow=classic;html=1;rounded=0;entryX=0;entryY=0.5;entryDx=0;entryDy=0;" parent="1" target="KMo8AS0ZJu5sJgMPSJ-H-149" edge="1">
          <mxGeometry width="50" height="50" relative="1" as="geometry">
            <mxPoint x="1360" y="820" as="sourcePoint" />
            <mxPoint x="1360" y="830" as="targetPoint" />
            <Array as="points">
              <mxPoint x="1360" y="870" />
            </Array>
          </mxGeometry>
        </mxCell>
      </root>
    </mxGraphModel>
  </diagram>
</mxfile>
